<svg id="Layer_1" data-name="Layer 1" xmlns="http://www.w3.org/2000/svg" viewBox="0 0 4000 4000"><defs><style>.cls-1,.cls-3{fill:#fff;}.cls-2{fill:#f4b75d;}.cls-11,.cls-3,.cls-6,.cls-9{stroke:#66142e;stroke-miterlimit:10;stroke-width:0;}.cls-4{opacity:0.3;}.cls-5{fill:#66142e;}.cls-10,.cls-6{fill:#f47516;}.cls-7{opacity:0.55;}.cls-8{opacity:0.25;}.cls-9{fill:#792937;}.cls-11{fill:#ea4235;}.cls-12{fill:#e93b47;}.cls-13{opacity:0.2;}</style></defs><rect class="cls-1" width="4000" height="4000"/><circle class="cls-2" cx="1990" cy="2081.17" r="1009.31"/><path class="cls-3" d="M2668.92,2119.81c30.49,237.18-1375.35,417.94-1405.85,180.75C1239.4,2116.48,2645.25,1935.72,2668.92,2119.81Z"/><g class="cls-4"><path class="cls-5" d="M1267.69,2317.05c89.22,203,1320.63,48.46,1397.88-168.36C2590.15,1990.54,1354.92,2145.57,1267.69,2317.05Z"/></g><g class="cls-4"><path class="cls-5" d="M1647.5,1248c7.35,9.19,5.5,22.41,3.61,34s-2.81,25.22,5.61,33.45c10,9.75,26.67,6.08,39.61,11.26a30.49,30.49,0,0,1,18.68,27.7c0,8.16-3.09,17.42,2,23.77,4.14,5.14,11.89,5.62,18.3,4a39.83,39.83,0,0,0,22.35-62.61c-17.22-22.9-59.27-15.55-77.77-37.43C1670.22,1270.73,1661.3,1253.92,1647.5,1248Z"/></g><path class="cls-5" d="M1263.05,2315.72a15.14,15.14,0,0,1-15-13.21c-6.73-52.38,64.21-100.86,216.89-148.21,125.43-38.91,296.39-73.43,481.38-97.21s359.12-33.63,490.31-27.72c159.69,7.19,240.59,36.14,247.32,88.52a15.15,15.15,0,0,1-30,3.86c-1.58-12.33-22-53.27-218.63-62.12-129.52-5.85-301.79,3.94-485.08,27.5s-352.46,57.7-476.28,96.1c-188,58.3-197.4,103.08-195.81,115.41a15.16,15.16,0,0,1-13.09,17A16.24,16.24,0,0,1,1263.05,2315.72Z"/><path class="cls-6" d="M1966.54,942.36c10.44-65.77,88.27-87.89,164.77-25.06,23.71,19.47,40.91,46.28,45.22,76.65,6.13,43.15-17.28,64.83-55.86,75.48-43.31,12-83.29,34.31-113.24,67.81-37.39,41.81-63.68,94.25-83.11,153.27.09,54.81-22.18,98.54-56.22,136.45-8.88,9.89-14.09,22.81-13.48,36.08,1.73,37.58-18.91,63.28-57.4,79.49a76.66,76.66,0,0,0-29.6,22.49c-38.12,46.88-81.93,66.72-132.07,56.63a75.89,75.89,0,0,0-54.28,9.74c-34.74,21.17-67.67,20.68-98.7-2.7-7.34-5.53-16.07-8.7-25-10.82-17.61-4.18-30.63-16.3-38.54-25.88a61.58,61.58,0,0,0-24.19-18.16c-132.72-53.74-138.17-256.63-65.19-315.71,32.6-26.39,72.35-28,72.35-28,34.92-47.93,72.82-84.15,123.1-72,38.47,6.76,71.32-4.19,96.39-39.67,8.63-12.21,19.21-23,32.22-30.36,17.9-10.11,44-19.21,72.46-10.31,42.45,13.28,137.67-25.75,201.9-72.71A96.74,96.74,0,0,0,1966.54,942.36Z"/><g class="cls-4"><path class="cls-5" d="M2176.51,994c6.18,43.16-17.23,64.85-55.82,75.46-43.31,11.95-83.29,34.31-113.27,67.86-37.38,41.81-63.64,94.23-83.12,153.24.14,54.82-22.16,98.54-56.22,136.43-8.88,9.89-14.06,22.82-13.44,36.07,1.71,37.6-18.93,63.32-57.44,79.55a76.28,76.28,0,0,0-29.57,22.48c-38.12,46.85-81.92,66.69-132.1,56.61a76,76,0,0,0-54.29,9.72c-34.68,21.19-67.67,20.68-98.69-2.67-7.34-5.51-16.07-8.72-25-10.85C1440,1613.71,1427,1601.59,1419,1592a61.56,61.56,0,0,0-24.23-18.2c-91.67-37.11-122.65-145.36-109-228.23a161,161,0,0,0,41.23,36.26,61.14,61.14,0,0,1,20.82,21.9c6.25,10.79,17.06,24.88,33.73,32,8.47,3.55,16.56,8.1,22.92,14.8,26.68,28.16,59.12,34.12,96.88,19a75.93,75.93,0,0,1,55.14-.63c47.77,18.22,94.28,5.92,139.6-34a77.51,77.51,0,0,1,32.93-17.27c40.66-9.62,65.23-31.52,69.74-68.91,1.65-13.16,8.9-25,19.31-33.31,39.85-31.74,69-71.19,78-125.3,29-55,63.55-102.36,107.37-137.35,35-28.12,78.17-43.56,122.9-48.18,20.15-2.06,37-7.58,48.78-18.16C2175.68,988.86,2176.12,991.37,2176.51,994Z"/></g><g class="cls-7"><path class="cls-1" d="M2167,962.35a141.51,141.51,0,0,0-13.79-12.89c-76.54-62.83-154.36-40.73-164.78,25a96.73,96.73,0,0,1-38.48,62.74c-64.27,47-159.47,86-201.91,72.75-28.43-8.91-54.57.18-72.44,10.27-13,7.42-23.61,18.16-32.26,30.4-25,35.48-57.89,46.42-96.38,39.67-50.25-12.14-88.15,24-123.13,72,0,0-39.74,1.54-72.32,28-51.71,41.82-64.07,155.89-19.64,238-69-81-61.14-222.36-2.22-270.1,32.58-26.37,72.32-28,72.32-28,35-48,72.88-84.14,123.13-72,38.48,6.75,71.33-4.19,96.37-39.67,8.66-12.19,19.24-23,32.27-30.34,17.86-10.16,44-19.24,72.43-10.33,42.44,13.26,137.65-25.77,201.92-72.69a96.92,96.92,0,0,0,38.48-62.74c10.41-65.8,88.24-87.9,164.78-25.08A130.81,130.81,0,0,1,2167,962.35Z"/></g><g class="cls-8"><path class="cls-1" d="M1464.31,1280.81c13.57,5.29,18.42,22.65,30.84,30.26,5.23,3.21,11.4,4.42,17.35,5.92s12.06,3.47,16.44,7.77,6.44,11.55,3.13,16.72c-2.69,4.21-8,5.89-12.86,6.79a76.47,76.47,0,0,1-49.79-8c-13.29-7.25-28.83-21.11-33-36.34S1449.74,1275.14,1464.31,1280.81Z"/></g><path class="cls-5" d="M1532.29,1662.2c-20.5,0-40.39-7-59.06-21.1-4.69-3.54-10.81-6.12-19.25-8.12-21.85-5.19-37.58-19.78-46.93-31.11a46.37,46.37,0,0,0-18-13.65c-63.74-25.81-107.06-85.9-118.82-164.85-10.9-73.17,9.06-144.43,49.68-177.32,27.56-22.3,59.33-28.81,73.74-30.69,33.43-44.75,75.57-86.41,134.62-72.42,34.61,6,60.26-4.67,80.58-33.42,10.82-15.31,23.36-27.06,37.27-34.91,28.4-16.06,57.7-20.08,84.73-11.62,33.65,10.52,123.29-23,188.09-70.43a81.57,81.57,0,0,0,32.32-52.63h0c5.2-32.78,25.1-58,54.59-69.2,39.92-15.16,90.53-2.24,135.37,34.57,28.07,23.06,46.1,53.77,50.74,86.47,4.62,32.53-3.28,75-67.11,92.63-42.82,11.82-79.4,33.67-105.79,63.19-32.9,36.79-58.82,84.39-79.17,145.46-.54,52.57-20.24,99.8-60.19,144.29-6.45,7.18-9.92,16.29-9.52,25,1.37,29.68-9.13,70.17-66.89,94.5a61.61,61.61,0,0,0-23.58,18c-42.5,52.28-92,73.17-147.17,62a60.88,60.88,0,0,0-43.14,7.79C1570.14,1656.35,1551,1662.2,1532.29,1662.2Zm-26.7-490.92c-29.24,0-56.74,20.9-91,68a15.49,15.49,0,0,1-11.93,6.37c-.3,0-35.24,1.9-63.2,24.54-31.87,25.8-47.71,86.91-38.51,148.61,10.1,67.8,46.46,119.06,99.76,140.63A77.53,77.53,0,0,1,1431,1582.1c6.33,7.67,16.69,17.47,30.15,20.67,12.59,3,22.65,7.41,30.77,13.52,25.73,19.38,51.55,20,81.28,1.84a91,91,0,0,1,65.43-11.71c43.53,8.76,81.81-8,117-51.19a92.7,92.7,0,0,1,35.62-27c34.06-14.34,49.29-34.83,47.92-64.46-.77-17,5.41-33.78,17.43-47.17,35.73-39.79,52.33-79.84,52.25-126a15.63,15.63,0,0,1,.78-4.89c21.84-66.32,50.07-118.25,86.29-158.76,30.38-34,72.11-59,120.68-72.42,35.68-9.86,49-27.3,44.62-58.34-3.54-25-17.64-48.72-39.7-66.83-36.13-29.66-75.25-40.71-104.63-29.54-19.08,7.24-31.5,23.24-35,45h0a112.81,112.81,0,0,1-44.65,72.84c-67.09,49.06-166.1,90.51-215.7,75-23.5-7.35-45.71.85-60.18,9-9.88,5.59-19,14.27-27.18,25.8-27.38,38.74-65,54.23-111.77,46-.32-.06-.64-.12-1-.2A67.14,67.14,0,0,0,1505.59,1171.28Z"/><path class="cls-5" d="M1393.87,1214c10.79-1,19.25,1.82,27,6a45.49,45.49,0,0,1,10.81,8.34,36.68,36.68,0,0,1,7.52,12c5.94,15.57,4.39,29.89,4.09,42.06-.51,12.36.11,23,5.88,32.84a48,48,0,0,0,26.15,21.6h0a3.11,3.11,0,0,1-1.46,6,58,58,0,0,1-45.28-39.33,113.59,113.59,0,0,1-4.16-20.16c-.86-6.5-1.54-12.58-2.75-18.1a44.35,44.35,0,0,0-5.27-14.19,9.62,9.62,0,0,0-3.21-3.49,19.64,19.64,0,0,0-4.77-2.35c-3.55-1.29-8-1.41-9.75-.58a16,16,0,1,1-8.23-30.38Z"/><path class="cls-5" d="M1612.07,1606.53c21.63,1.36,43.21-1.72,59.87-11.83,16-9.72,28-28.52,26.19-46.09-.62-8.94-5.09-19-9.64-30.38a99.45,99.45,0,0,1-7.71-37.6c-.23-6-.46-11.64-1-17a67.48,67.48,0,0,0-1.31-7.78,36.91,36.91,0,0,0-2.47-6.94c-4.14-9.07-12.57-17.06-22.72-16l-.15,0a3.12,3.12,0,0,1-1.38-6,25.25,25.25,0,0,1,20.28,1.84,43.1,43.1,0,0,1,15.22,13.47c8.12,11.84,9.54,25.15,11.61,36.55a128.67,128.67,0,0,0,3.54,16,96.44,96.44,0,0,0,6.28,14.63c4.93,10.09,11.62,21.4,14.13,36,2.27,14.75-1.07,29.73-7.76,42.18a81.43,81.43,0,0,1-28.7,30.52,99.55,99.55,0,0,1-38.17,13.56,134,134,0,0,1-38.81-.41h-.06a12.43,12.43,0,0,1,2.78-24.68Z"/><path class="cls-5" d="M1637.5,1244.75c3.52-4.34,9.75-6.13,15.26-5.75a27.65,27.65,0,0,1,15.59,6.31c8.7,7.32,12.51,17.15,15.93,24.55,3.17,7.42,6.76,13.18,10.11,15.22,3.12,2.23,8.81,3.1,17,3,4,0,8.48,0,13.38.23a56.06,56.06,0,0,1,15.62,3.06,50.82,50.82,0,0,1,24.82,19.52,46.1,46.1,0,0,1,7.54,29.58c-.91,9.94-5,19.36-11.69,26a3.16,3.16,0,0,1-5.18-3.39l0-.1c5.81-14.91,2.57-31-6.5-40a34.11,34.11,0,0,0-16.15-9.55c-5.47-1.53-12.57-1-21.57-.66a78.69,78.69,0,0,1-15-.85,38.41,38.41,0,0,1-16.83-7.15,39.47,39.47,0,0,1-11.1-13.81,73.68,73.68,0,0,1-5.09-13.76c-2.22-8.47-3.68-15.46-6.94-20.56a15.59,15.59,0,0,0-6.4-5.88,11.43,11.43,0,0,0-9-1.08l-.4.12a3.17,3.17,0,0,1-3.4-5Z"/><path class="cls-5" d="M1901.72,1351.87c12.43-39.59,10.07-85.17-8-125.12a3.11,3.11,0,0,1,5.47-3c24.22,38.38,34.43,86.61,26.7,133.7l0,.12a12.45,12.45,0,1,1-24.58-4A13.72,13.72,0,0,1,1901.72,1351.87Z"/><path class="cls-5" d="M1631.14,1131.67c-30.5,24.74-52.63,62.5-58.9,104.25a3.9,3.9,0,0,1-7.75-.44c-1.34-44.17,14.19-90,44.78-125.85l.17-.2a15.6,15.6,0,1,1,23.74,20.25A17.39,17.39,0,0,1,1631.14,1131.67Z"/><path class="cls-5" d="M1729,1065.71a306.48,306.48,0,0,1,31.89,12.41,332.91,332.91,0,0,1,30,15.42,253,253,0,0,1,27.84,19,166.5,166.5,0,0,1,23.88,23.75,3.11,3.11,0,0,1-4.52,4.25l-.09-.09a157.38,157.38,0,0,0-25.49-19,241.34,241.34,0,0,0-28.54-14.07,315.47,315.47,0,0,0-30.1-10.38,283.63,283.63,0,0,0-30.52-7.15l-.22,0a12.46,12.46,0,1,1,4.13-24.58A14.08,14.08,0,0,1,1729,1065.71Z"/><path class="cls-6" d="M1448.58,1444.66q46.22,113.41,127.49,15.32"/><path class="cls-5" d="M1451.45,1443.49c9,11.78,17,23.53,26.15,33a69.41,69.41,0,0,0,14,11.68c4.85,2.78,9.57,4.58,14.51,4.81,9.74.89,21.34-3.92,32.69-10.77s22.61-15.69,34.84-24.17l0,0a3.21,3.21,0,0,1,4.74,4,114.84,114.84,0,0,1-27,37,80.62,80.62,0,0,1-20.52,13.72,63.35,63.35,0,0,1-12.69,4.17,52.2,52.2,0,0,1-14.06.82c-9.64-.63-18.79-4.67-26-10a70.1,70.1,0,0,1-17-18.62,108.57,108.57,0,0,1-15.56-43.27,3.2,3.2,0,0,1,5.71-2.39Z"/><path class="cls-5" d="M1984.44,924.43c-1.74,8.66-3.17,17.94-4.37,27s-2.13,18.28-2.66,27.44a239.6,239.6,0,0,0-.3,27.45c.51,9.08,1.5,18.18,4.11,26.78l0,.08a3.11,3.11,0,0,1-5.77,2.28c-4.37-8.83-7-18.25-9.12-27.67a250.31,250.31,0,0,1-4.46-28.54c-1-9.56-1.64-19.14-2-28.73s-.46-19.06-.14-29a12.47,12.47,0,0,1,24.92.8,12.76,12.76,0,0,1-.22,2Z"/><g class="cls-8"><path class="cls-1" d="M1592.28,1317.42a25.81,25.81,0,0,1,8.52-1.6,9.6,9.6,0,0,1,7.59,3.61c2.74,3.89.94,9.47-2.19,13-5.48,6.27-14,8.77-22.09,10.8-4.49,1.12-9.13,2.2-13.69,1.44s-9.05-3.84-10-8.36C1557.92,1325.06,1585.18,1319.65,1592.28,1317.42Z"/></g><g class="cls-8"><path class="cls-1" d="M1712.61,1237.78c3.33,1.89,6.89,3.56,10.7,3.9s7.93-.87,10.31-3.86c3.16-4,2.46-9.7,1.17-14.61-3.77-14.37-11.08-27.51-18.32-40.48-2.35-4.2-4.76-8.48-8.28-11.77-16.38-15.23-31,10.89-29.56,25.85C1680.27,1213.56,1699,1230.08,1712.61,1237.78Z"/></g><g class="cls-4"><path class="cls-5" d="M1401.39,1407.54c2.53,3.29,6,6.08,10.13,6.73s8.77-1.36,10.27-5.23c1.76-4.57-1.24-9.61-4.83-12.94s-8-6-10.31-10.32c-1.37-2.57-2.48-6-5.37-6.37C1389.15,1378,1398.8,1404.19,1401.39,1407.54Z"/></g><g class="cls-4"><path class="cls-5" d="M1455.52,1422.71c9.1-3,5.6-22.14-5.85-18.57C1438.57,1407.59,1447.25,1425.48,1455.52,1422.71Z"/></g><g class="cls-4"><path class="cls-5" d="M1423.77,1383a9,9,0,0,0,2.66,4.9,5.55,5.55,0,0,0,2.52,1.22,4.2,4.2,0,0,0,2.75-.35c2.11-1.08,2.78-3.74,3-6.09C1435.53,1374.63,1421.67,1373.62,1423.77,1383Z"/></g><g class="cls-4"><path class="cls-5" d="M1851.94,1240.71c-3,8.23-7.25,16.59-14.68,21.26-2.39,1.5-5.33,2.58-8,1.72s-4.59-3.67-5.59-6.44a23.14,23.14,0,0,1,2.55-20.41c4.14-6.14,16.8-18.25,24.67-18.25C1862,1218.58,1854.39,1235.14,1851.94,1240.71Z"/></g><g class="cls-4"><path class="cls-5" d="M1858.89,1189.35a21.38,21.38,0,0,0-1.5,7.23c.07,2.48,1.18,5.08,3.35,6.26,2.7,1.46,6.14.32,8.5-1.64a14.14,14.14,0,0,0,5-10.82c0-3.82-2.27-10.52-7-10.85C1862.27,1179.19,1860.12,1185.64,1858.89,1189.35Z"/></g><g class="cls-4"><path class="cls-5" d="M1833.45,1182.69a7.22,7.22,0,1,0,1.21.09"/></g><g class="cls-4"><path class="cls-5" d="M1647.5,1248c7.35,9.19,5.5,22.41,3.61,34s-2.81,25.22,5.61,33.45c10,9.75,26.67,6.08,39.61,11.26a30.49,30.49,0,0,1,18.68,27.7c0,8.16-3.09,17.42,2,23.77,4.14,5.14,11.89,5.62,18.3,4a39.83,39.83,0,0,0,22.35-62.61c-17.22-22.9-59.27-15.55-77.77-37.43C1670.22,1270.73,1661.3,1253.92,1647.5,1248Z"/></g><g class="cls-4"><path class="cls-9" d="M1468.37,1338.63a31,31,0,0,1-32.59-.59c-8.78-5.84-13.88-15.74-21.27-23.26-4-4.06-8.76-7.53-11.55-12.5-4.19-7.48-2.91-17.24,1.83-24.38s12.44-11.91,20.56-14.67c-1.44,14.85,2.81,30.57,10.31,43.47S1454.75,1332.55,1468.37,1338.63Z"/></g><path class="cls-6" d="M1907.17,2716.07c-65.1,14-82.92,92.95-16,165.9,20.74,22.61,48.44,38.31,79,41,43.42,3.75,63.78-20.81,72.31-59.92,9.57-43.9,29.7-85,61.51-116.78,39.7-39.62,90.62-68.74,148.48-91.38,54.74-2.9,97.19-27.54,133.18-63.6,9.39-9.41,22-15.31,35.28-15.43,37.62-.34,62.15-22.35,76.23-61.67a76.76,76.76,0,0,1,20.84-30.79c44.72-40.62,62.13-85.46,49.31-135a75.9,75.9,0,0,1,6.76-54.73c19.23-35.84,16.94-68.7-8.1-98.4-5.92-7-9.57-15.57-12.17-24.38-5.14-17.35-18-29.7-28-37.07a61.59,61.59,0,0,1-19.46-23.16c-60.92-129.58-263.8-123.92-318.8-47.81-24.57,34-24,73.77-24,73.77-45.94,37.49-80,77.33-65.14,126.86,8.86,38.05-.28,71.45-34.33,98.42-11.72,9.28-21.92,20.44-28.55,33.83-9.12,18.43-16.77,45-6.34,72.92,15.59,41.65-18.17,138.87-61.54,205.57A96.76,96.76,0,0,1,1907.17,2716.07Z"/><g class="cls-4"><path class="cls-5" d="M1970.17,2922.91c43.44,3.8,63.82-20.76,72.29-59.88,9.57-43.89,29.71-85,61.56-116.81,39.71-39.61,90.61-68.7,148.47-91.39,54.74-2.85,97.17-27.51,133.14-63.6,9.39-9.41,22-15.29,35.29-15.39,37.63-.35,62.19-22.37,76.28-61.71a76.34,76.34,0,0,1,20.83-30.76c44.69-40.62,62.11-85.45,49.29-135a76.07,76.07,0,0,1,6.73-54.75c19.26-35.79,16.95-68.7-8.06-98.39-5.91-7-9.59-15.57-12.2-24.35-5.11-17.37-17.92-29.68-27.91-37.06a61.63,61.63,0,0,1-19.51-23.19c-42.07-89.51-151.85-114.52-233.85-96.37a161,161,0,0,1,38.47,39.19,61.14,61.14,0,0,0,23,19.58c11.11,5.65,25.77,15.67,33.76,31.94,4,8.25,9,16.08,16,22.07,29.58,25.1,37.3,57.16,24.26,95.7a75.91,75.91,0,0,0,2.4,55.09c20.8,46.69,11.07,93.81-26.34,141.25a77.57,77.57,0,0,0-15.44,33.82c-7.37,41.13-27.9,66.86-65,73.41-13.06,2.37-24.52,10.26-32.21,21.1-29.51,41.53-67.31,72.81-120.84,84.72-53.28,31.91-98.73,69.06-131.27,114.73-26.16,36.54-39.21,80.43-41.38,125.35-1,20.23-5.54,37.34-15.46,49.7C1965,2922.35,1967.57,2922.66,1970.17,2922.91Z"/></g><g class="cls-7"><path class="cls-1" d="M1938.1,2915.12a142.18,142.18,0,0,1-13.63-13c-66.92-73-49.11-151.91,16-165.91a96.78,96.78,0,0,0,60.54-41.85c43.4-66.75,77.15-163.95,61.59-205.6-10.45-27.9-2.82-54.49,6.29-72.89,6.69-13.41,16.83-24.57,28.58-33.88,34.06-26.94,43.19-60.34,34.34-98.4-14.88-49.51,19.18-89.34,65.15-126.88,0,0-.63-39.77,24-73.75,38.93-53.92,152.15-72.51,236.52-32.64-84.66-64.42-225.37-48.87-269.82,12.57-24.54,34-24,73.74-24,73.74-46,37.55-80,77.38-65.15,126.89,8.85,38.05-.28,71.46-34.34,98.4-11.69,9.31-21.89,20.47-28.52,33.88-9.17,18.39-16.81,45-6.36,72.89,15.57,41.65-18.19,138.85-61.52,205.6a97,97,0,0,1-60.54,41.85c-65.13,14-82.94,92.92-16,165.9A130.58,130.58,0,0,0,1938.1,2915.12Z"/></g><g class="cls-8"><path class="cls-1" d="M2217.62,2196.07c6,13.26,23.62,17.15,31.91,29.13,3.48,5.05,5,11.14,6.85,17s4.13,11.86,8.66,16,11.88,5.79,16.87,2.21c4.05-2.92,5.45-8.27,6.07-13.22a76.35,76.35,0,0,0-10.76-49.27c-8-12.87-22.65-27.63-38.08-30.91S2211.16,2181.83,2217.62,2196.07Z"/></g><path class="cls-5" d="M1978.33,2938.81c-3.23,0-6.4-.15-9.49-.42-32.91-2.84-64.56-19.15-89.11-45.92-39.22-42.75-54.89-92.57-41.94-133.27,9.57-30.07,33.67-51.32,66.11-58.31a81.56,81.56,0,0,0,50.79-35.14c43.76-67.3,72.38-158.66,60-191.67-9.92-26.52-7.52-56,7-85.25,7.1-14.32,18.14-27.48,32.83-39.11,27.59-21.86,36.8-48,28.95-82.29-17.2-58.22,22.09-102.55,65-138.39,1.08-14.49,5.84-46.57,26.61-75.3,30.61-42.35,100.7-66.19,174.33-59.31,79.48,7.42,141.84,47.38,171.11,109.61a46.3,46.3,0,0,0,14.62,17.27c11.82,8.72,27.25,23.63,33.62,45.16,2.47,8.33,5.38,14.3,9.16,18.78,28.79,34.15,32.22,74.17,9.91,115.75a60,60,0,0,0-5.41,43.5c14.11,54.46-4,105.05-53.9,150.35a61.52,61.52,0,0,0-16.66,24.53c-21.13,59-61,71.7-90.71,72-8.71.08-17.62,4-24.44,10.88-42.23,42.32-88.31,64.58-140.77,68-59.86,23.67-106,52.14-140.91,87-28,28-47.84,65.69-57.3,109.09C2044.88,2924.91,2009.25,2938.81,1978.33,2938.81Zm-71.16-222.74,3.27,15.18c-21.58,4.65-36.86,17.92-43.06,37.36-9.54,30,3.63,68.42,35.23,102.87,19.29,21,43.76,33.8,68.91,36,31.28,2.68,47.91-11.58,55.8-47.75,10.73-49.24,33.45-92.28,65.71-124.46,38.47-38.4,88.78-69.42,153.8-94.86a15.76,15.76,0,0,1,4.83-1c46.15-2.45,85.23-21.22,123-59.07,12.54-12.55,29.36-19.84,46.15-20,29.66-.26,49.28-16.59,61.75-51.38a92.61,92.61,0,0,1,25-37c41.24-37.45,55.86-76.57,44.72-119.58a90.94,90.94,0,0,1,8.11-66c16.46-30.68,14.46-56.44-6.29-81.06-6.55-7.76-11.52-17.57-15.19-30-3.93-13.26-14.28-23.08-22.28-29a77.44,77.44,0,0,1-24.3-29c-24.46-52-77.64-85.54-145.89-91.91-62-5.78-122.26,13.35-146.28,46.58-21.07,29.17-21,64.15-21,64.5a15.61,15.61,0,0,1-5.71,12.21c-53.2,43.4-70.61,75.38-60.09,110.36.09.31.18.63.25.94,10.78,46.27-2.62,84.66-39.81,114.12-11.07,8.76-19.24,18.37-24.28,28.55-7.37,14.9-14.35,37.5-5.7,60.58,18.2,48.67-17.77,149.82-63.08,219.49a112.88,112.88,0,0,1-70.28,48.57Z"/><path class="cls-5" d="M2177.94,2132.57c-.73,1.82-.36,6.24,1.12,9.71a19.68,19.68,0,0,0,2.6,4.63,9.54,9.54,0,0,0,3.67,3,44.1,44.1,0,0,0,14.46,4.49c5.57.91,11.68,1.25,18.21,1.76a113.18,113.18,0,0,1,20.36,3,58,58,0,0,1,41.75,43.05,3.11,3.11,0,0,1-5.94,1.8V2204a48,48,0,0,0-23-24.93c-10.08-5.23-20.79-5.25-33.11-4.07-12.13,1-26.34,3.3-42.21-1.79a36.48,36.48,0,0,1-12.39-6.84,45.47,45.47,0,0,1-8.92-10.34c-4.6-7.54-7.84-15.83-7.47-26.66l.11-3.3a16,16,0,1,1,31.92,1.08A16.31,16.31,0,0,1,2177.94,2132.57Z"/><path class="cls-5" d="M2575.44,2321.7a134,134,0,0,1,2.53,38.74,99.32,99.32,0,0,1-11.44,38.85,81.52,81.52,0,0,1-28.9,30.33c-12.07,7.36-26.85,11.52-41.69,10.05-14.77-1.7-26.42-7.76-36.77-12.13a96.49,96.49,0,0,0-15-5.47,128.22,128.22,0,0,0-16.16-2.66c-11.5-1.43-24.87-2.13-37.13-9.59a43.21,43.21,0,0,1-14.29-14.45,25.31,25.31,0,0,1-2.94-20.16,3.11,3.11,0,0,1,6.09,1.05v.15c-.47,10.19,8,18.17,17.26,21.81a35.49,35.49,0,0,0,7.06,2.08,65.48,65.48,0,0,0,7.84.88c5.39.28,11,.19,17,.1a99.19,99.19,0,0,1,38,5.63c11.64,3.92,21.9,7.84,30.87,8,17.64.8,35.76-12.13,44.58-28.68,9.19-17.18,11.08-38.91,8.53-60.43a12.44,12.44,0,0,1,24.49-4.18Z"/><path class="cls-5" d="M2196.2,2374.49a11.49,11.49,0,0,0,1.58,8.92,15.53,15.53,0,0,0,6.22,6.07c5.27,3,12.33,4,20.91,5.8a73.51,73.51,0,0,1,14,4.32,39.55,39.55,0,0,1,14.4,10.34,38.4,38.4,0,0,1,8.06,16.41,78.41,78.41,0,0,1,1.67,15c.2,9,0,16.12,1.85,21.51a34,34,0,0,0,10.41,15.59c9.51,8.57,25.76,10.92,40.32,4.31l.1-.05a3.16,3.16,0,0,1,3.67,5c-6.26,7-15.44,11.64-25.31,13.09a46.06,46.06,0,0,1-30-5.9,50.73,50.73,0,0,1-20.84-23.71,55.77,55.77,0,0,1-3.92-15.44c-.54-4.87-.72-9.32-1-13.34-.38-8.14-1.55-13.78-3.95-16.77-2.23-3.24-8.17-6.5-15.76-9.26-7.57-3-17.6-6.27-25.38-14.56a27.8,27.8,0,0,1-7.15-15.22c-.68-5.49.77-11.81,4.9-15.56a3.18,3.18,0,0,1,5.22,3.1Z"/><path class="cls-5" d="M2319.46,2652.79c-46.59,10.29-95.31,2.74-135-19.35a3.11,3.11,0,0,1,2.65-5.61c40.87,15.82,86.52,15.68,125.37,1.1a12.46,12.46,0,0,1,8.75,23.33,14.26,14.26,0,0,1-1.62.49Z"/><path class="cls-5" d="M2054.63,2350.18c34.14-32.51,79-50.52,123.21-51.6a3.89,3.89,0,0,1,.87,7.71c-41.35,8.55-77.84,32.71-100.88,64.52a15.6,15.6,0,0,1-25.27-18.31,14.58,14.58,0,0,1,1.82-2.08Z"/><path class="cls-5" d="M2041.18,2465.16a285.65,285.65,0,0,0,8.8,30.09,312.13,312.13,0,0,0,12,29.47,240.44,240.44,0,0,0,15.61,27.73,157.68,157.68,0,0,0,20.37,24.42l.08.08a3.11,3.11,0,0,1-4,4.75,166.59,166.59,0,0,1-25-22.55,254.09,254.09,0,0,1-20.55-26.75,334.47,334.47,0,0,1-17-29.12,305.68,305.68,0,0,1-14.13-31.16,12.46,12.46,0,1,1,23.28-8.89,11,11,0,0,1,.5,1.64Z"/><path class="cls-10" d="M2380.36,2171.39q115.77,39.95,22.28,126.46"/><path class="cls-5" d="M2381.37,2168.45a108.74,108.74,0,0,1,44.06,13.17,70.25,70.25,0,0,1,19.53,16c5.65,6.86,10.19,15.77,11.35,25.36a51.91,51.91,0,0,1-.06,14.09,63.27,63.27,0,0,1-3.46,12.89,80.7,80.7,0,0,1-12.58,21.24,114.72,114.72,0,0,1-35.46,29,3.21,3.21,0,0,1-4.25-4.51l0,0c7.8-12.68,16-24.3,22.23-36.11s10.39-23.55,9-33.23c-.5-4.91-2.56-9.53-5.59-14.22a69.51,69.51,0,0,0-12.44-13.38c-9.91-8.63-22.09-16-34.34-24.3l0,0a3.19,3.19,0,0,1-.86-4.44A3.23,3.23,0,0,1,2381.37,2168.45Z"/><path class="cls-5" d="M1886,2710.45c9.92-.86,19.33-1.24,29-1.44s19.19-.11,28.79.4a251.29,251.29,0,0,1,28.75,2.89c9.53,1.6,19.07,3.71,28.13,7.6a3.11,3.11,0,0,1-2,5.88l-.09,0c-8.72-2.13-17.87-2.62-27-2.63a240.05,240.05,0,0,0-27.39,1.8c-9.12,1-18.21,2.47-27.25,4.16s-18.16,3.62-26.72,5.83l-.07,0a12.47,12.47,0,0,1-6.24-24.14A14.51,14.51,0,0,1,1886,2710.45Z"/><g class="cls-8"><path class="cls-1" d="M2261.17,2321.84a25.94,25.94,0,0,0-1.12,8.6,9.57,9.57,0,0,0,4,7.37c4,2.53,9.5.43,12.91-2.9,6-5.81,8-14.47,9.57-22.64.88-4.54,1.7-9.24.69-13.75s-4.33-8.83-8.9-9.57C2266.93,2287.11,2263,2314.63,2261.17,2321.84Z"/></g><g class="cls-8"><path class="cls-3" d="M2188.25,2446.35c2.06,3.22,3.92,6.68,4.47,10.47s-.42,8-3.29,10.51c-3.79,3.37-9.55,3-14.52,2-14.55-3-28.07-9.55-41.42-16.07-4.33-2.12-8.73-4.29-12.2-7.63-16.11-15.51,9.17-31.57,24.18-30.93C2162.29,2415.38,2179.81,2433.2,2188.25,2446.35Z"/></g><g class="cls-4"><path class="cls-5" d="M2340.72,2126.3c3.42,2.35,6.39,5.69,7.26,9.75s-.87,8.83-4.66,10.54c-4.46,2-9.66-.71-13.18-4.11s-6.44-7.66-10.87-9.73c-2.63-1.23-6.16-2.15-6.65-5C2310.58,2115.7,2337.23,2123.9,2340.72,2126.3Z"/></g><g class="cls-4"><path class="cls-5" d="M2358.82,2179.52c-2.55,9.26-21.8,6.81-18.86-4.82C2342.8,2163.43,2361.13,2171.11,2358.82,2179.52Z"/></g><g class="cls-4"><path class="cls-5" d="M2317.41,2150a9,9,0,0,1,5,2.38,5.54,5.54,0,0,1,1.35,2.45,4.31,4.31,0,0,1-.19,2.77c-1,2.16-3.59,3-5.93,3.35C2309.72,2162.2,2308,2148.41,2317.41,2150Z"/></g><g class="cls-4"><path class="cls-9" d="M2198.79,2585.31c8.06-3.48,16.18-8.15,20.43-15.82,1.37-2.47,2.29-5.46,1.28-8.1s-3.91-4.37-6.73-5.22a23.15,23.15,0,0,0-20.25,3.66c-5.9,4.47-17.3,17.77-16.87,25.63C2177.25,2596.6,2193.37,2588.06,2198.79,2585.31Z"/></g><g class="cls-4"><path class="cls-9" d="M2147.9,2595.07a21.37,21.37,0,0,1,7.14-1.9c2.47-.06,5.13.89,6.42,3,1.61,2.61.67,6.12-1.17,8.57a14.08,14.08,0,0,1-10.53,5.59c-3.81.18-10.62-1.69-11.21-6.37C2137.93,2599,2144.26,2596.5,2147.9,2595.07Z"/></g><g class="cls-4"><path class="cls-9" d="M2139.85,2570a7.24,7.24,0,1,1,.16,1.21"/></g><g class="cls-4"><path class="cls-9" d="M2194.86,2380.78c9.59,6.84,22.69,4.26,34.19,1.74s25-4.18,33.7,3.77c10.28,9.41,7.53,26.3,13.41,38.94a30.5,30.5,0,0,0,28.68,17.14c8.15-.47,17.22-4,23.85.72,5.36,3.85,6.26,11.56,5,18a39.83,39.83,0,0,1-61.29,25.74c-23.81-15.94-18.77-58.32-41.63-75.6C2218.83,2402.22,2201.56,2394.23,2194.86,2380.78Z"/></g><g class="cls-4"><path class="cls-5" d="M2275.58,2197a31,31,0,0,0-2.38-32.52c-6.31-8.44-16.48-13-24.38-20-4.28-3.77-8-8.33-13.12-10.84-7.7-3.78-17.37-2-24.25,3.15s-11.21,13.08-13.52,21.34c14.75-2.25,30.68,1.13,44,7.91S2268.76,2183.69,2275.58,2197Z"/></g><path class="cls-6" d="M1584.89,2876.81c-42.2,51.51-7,124.36,90.79,139.77,30.3,4.77,61.76-.19,87.32-17.15,36.32-24.11,37-56,19.27-91.91-19.85-40.31-29.71-85-24.59-129.68,6.39-55.72,28.1-110.22,59.28-164,41-36.35,58.89-82.06,64.59-132.69,1.49-13.21,7.68-25.68,18-34,29.23-23.69,34.71-56.19,21.24-95.72a76.76,76.76,0,0,1-2.87-37.06c9.7-59.64-4.6-105.57-45.46-136.32a75.92,75.92,0,0,1-28.8-47c-7.27-40-29.52-64.31-67.61-71.95-9-1.81-17.18-6.23-24.71-11.5-14.82-10.38-32.54-12-44.95-11.59a61.71,61.71,0,0,1-29.65-6c-128.36-63.45-283.58,67.32-279.22,161.12,2,41.9,27.18,72.65,27.18,72.65-12.6,57.94-14.47,110.34,28,139.83,30.63,24.25,44.28,56.07,34.43,98.38-3.39,14.56-4.42,29.64-1.27,44.25,4.34,20.1,14.92,45.68,40.45,61,38.14,22.89,72.26,120,79.86,199.18A96.76,96.76,0,0,1,1584.89,2876.81Z"/><g class="cls-4"><path class="cls-5" d="M1763,2999.41c36.35-24.07,37-56,19.28-91.86-19.85-40.31-29.72-85-24.58-129.73,6.4-55.72,28.11-110.19,59.26-164,41.06-36.33,58.9-82.05,64.57-132.68,1.49-13.21,7.7-25.67,18-34,29.23-23.71,34.73-56.23,21.26-95.78a76.38,76.38,0,0,1-2.85-37c9.67-59.62-4.62-105.53-45.5-136.32a76,76,0,0,1-28.82-47c-7.22-40-29.53-64.31-67.59-72-9-1.81-17.2-6.21-24.7-11.45-14.81-10.41-32.51-12.07-44.92-11.62a61.41,61.41,0,0,1-29.7-6c-88.66-43.83-190.13,5-243,70.23a161,161,0,0,1,54.5,6.7,61,61,0,0,0,30.19,1c12.22-2.49,29.93-3.78,46.3,4,8.29,4,17.06,7,26.3,7.29,38.77,1.21,64.78,21.49,78.57,59.77a76,76,0,0,0,36.18,41.61c45.36,23.58,67.08,66.51,67.36,126.92a77.47,77.47,0,0,0,9,36.08c19.84,36.77,19.8,69.69-5.13,97.91-8.75,10-12.8,23.29-12.07,36.56,2.78,50.87-7.32,98.89-41.79,141.54-21.82,58.15-34.24,115.51-31.27,171.51,2.29,44.88,19.41,87.35,45.69,123.85,11.85,16.42,18.91,32.67,18.85,48.51C1758.63,3002.17,1760.8,3000.83,1763,2999.41Z"/></g><g class="cls-7"><path class="cls-1" d="M1733.05,3013.29a140.22,140.22,0,0,1-18.8-1.73c-97.81-15.43-133-88.27-90.82-139.75a96.75,96.75,0,0,0,21.3-70.44c-7.61-79.25-41.73-176.32-79.84-199.22-25.55-15.32-36.14-40.89-40.47-61-3.11-14.65-2.13-29.7,1.27-44.3,9.88-42.29-3.79-74.11-34.41-98.38-42.47-29.47-40.63-81.84-28-139.85,0,0-25.26-30.72-27.16-72.62-3.12-66.44,73.9-151.48,164.74-172.83-106.36,2.32-206.78,102.11-203.3,177.86,2,41.87,27.16,72.62,27.16,72.62-12.58,58-14.43,110.38,28,139.86,30.63,24.26,44.29,56.08,34.41,98.37-3.35,14.57-4.38,29.65-1.22,44.27,4.29,20.1,14.87,45.67,40.42,61,38.12,22.9,72.23,120,79.89,199.18a97,97,0,0,1-21.3,70.45c-42.25,51.51-7,124.35,90.77,139.78A130.61,130.61,0,0,0,1733.05,3013.29Z"/></g><g class="cls-8"><path class="cls-1" d="M1504,2276.61c13,6.63,29.16-1.29,43.1,2.93,5.87,1.78,10.88,5.58,16,9s10.61,6.71,16.74,7.13,12.9-2.87,14.57-8.78c1.36-4.8-.88-9.86-3.48-14.12a76.42,76.42,0,0,0-39.1-31.86c-14.25-5.11-34.93-7.51-49-.47S1490.06,2269.5,1504,2276.61Z"/></g><path class="cls-5" d="M1697.48,3033.83a156,156,0,0,1-24.22-1.91c-57.3-9-100.59-38.25-115.8-78.17-11.23-29.48-5.61-61.11,15.42-86.78h0a81.6,81.6,0,0,0,17.86-59.13c-7.67-79.92-42.18-169.21-72.4-187.35-24.28-14.57-40.75-39.13-47.63-71-3.37-15.63-2.93-32.81,1.32-51.05,8-34.29-1.11-60.48-28.59-82.41-49.71-34.84-46.57-94-35.36-148.73-8.18-12-24.42-40.08-26.07-75.48-2.42-52.21,37.55-114.49,99.47-155,66.81-43.69,140.48-51.27,202.14-20.79a46,46,0,0,0,22.19,4.41c14.68-.54,36,1.51,54.44,14.39,7.11,5,13.11,7.84,18.86,9,43.79,8.8,71.39,38,79.83,84.4a60,60,0,0,0,22.85,37.41c45,33.83,62.27,84.7,51.46,151.21a61.42,61.42,0,0,0,2.24,29.57c20.2,59.31-3.08,94.07-26.16,112.78-6.77,5.49-11.27,14.13-12.35,23.73-6.7,59.41-28.89,105.52-67.81,140.86-32.09,55.8-50.44,106.79-56.07,155.83-4.51,39.33,3.48,81.19,23.1,121,29.26,59.4,2.77,93.53-24.61,111.7C1750.32,3026.48,1724.62,3033.83,1697.48,3033.83ZM1596.9,2886.65c-14,17.07-17.69,37-10.42,56,11.2,29.38,45.45,51.27,91.62,58.54,28.17,4.44,55.29-.8,76.32-14.75,26.11-17.33,30.28-38.9,13.92-72.12-22.26-45.21-31.28-93-26.09-138.3,6.2-54,26.24-109.59,61.28-170a15.78,15.78,0,0,1,3.13-3.83c34.58-30.65,53.47-69.68,59.46-122.81,2-17.62,10.61-33.8,23.66-44.37,23-18.68,28.23-43.68,16.32-78.66a92.54,92.54,0,0,1-3.5-44.56c8.94-55-4-94.69-39.48-121.41a91,91,0,0,1-34.73-56.66c-6.23-34.26-23.83-53.17-55.4-59.51-10-2-20-6.58-30.55-14-11.33-7.93-25.53-9.18-35.48-8.8a77.27,77.27,0,0,1-37.1-7.6c-51.54-25.48-114-18.58-171.39,18.93-52.21,34.14-87.35,86.59-85.44,127.55,1.67,35.94,23.49,63.29,23.71,63.56a15.61,15.61,0,0,1,3.13,13.11c-14.59,67.09-8.31,102.95,21.7,123.77l.79.58c37.24,29.49,50.67,67.87,39.92,114.08-3.21,13.75-3.62,26.35-1.22,37.46,3.51,16.24,12.12,38.27,33.26,51,44.55,26.73,79.39,128.28,87.33,211a112.93,112.93,0,0,1-24.75,81.78Z"/><path class="cls-5" d="M1433.4,2251.64c.56,1.88,3.59,5.1,6.92,6.9a19.69,19.69,0,0,0,4.91,2,9.81,9.81,0,0,0,4.75.08,44.39,44.39,0,0,0,14.11-5.49c4.92-2.77,9.92-6.31,15.34-10a113.92,113.92,0,0,1,17.84-10.29,58,58,0,0,1,59.47,7.69,3.11,3.11,0,0,1-3.52,5.1l0,0a48,48,0,0,0-33.53-5.18c-11.14,2.18-19.54,8.84-28.44,17.43-8.9,8.31-18.56,19-34.14,24.89a36.61,36.61,0,0,1-14,2.36,45.21,45.21,0,0,1-13.42-2.54c-8.29-3-16-7.5-22.44-16.2l-2-2.66a16,16,0,1,1,25.64-19A16.27,16.27,0,0,1,1433.4,2251.64Z"/><path class="cls-5" d="M1862.19,2152.09a134.18,134.18,0,0,1,26.11,28.73,99.73,99.73,0,0,1,15.24,37.53,81.42,81.42,0,0,1-3.73,41.73c-4.86,13.27-13.83,25.73-26.36,33.83-12.61,7.86-25.51,10.37-36.32,13.39a96.25,96.25,0,0,0-15.11,5,128.78,128.78,0,0,0-14.3,8c-9.89,6-20.78,13.82-35,15.62a43,43,0,0,1-20.17-2.42,25.26,25.26,0,0,1-14.86-13.94,3.12,3.12,0,0,1,5.43-3l.08.12c6,8.27,17.56,9.25,27.09,6.32a35.94,35.94,0,0,0,6.82-2.77,65.93,65.93,0,0,0,6.68-4.19c4.4-3.15,8.76-6.73,13.4-10.54a99.57,99.57,0,0,1,33.21-19.23c11.54-4.18,22-7.51,29.11-13,14.3-10.36,20.42-31.76,17-50.2-3.52-19.17-15.57-37.34-31-52.6a12.43,12.43,0,0,1,16.56-18.51Z"/><path class="cls-5" d="M1598.33,2429.56a11.45,11.45,0,0,0,6.79,6,15.46,15.46,0,0,0,8.64.87c6-1,12.17-4.51,20-8.48a73.27,73.27,0,0,1,13.66-5.34,39.46,39.46,0,0,1,17.7-.88,38.46,38.46,0,0,1,16.52,7.82,78.24,78.24,0,0,1,10.62,10.66c5.76,6.92,10,12.61,14.84,15.68a34,34,0,0,0,17.86,5.71c12.78.79,27-7.5,34.23-21.74l0-.09a3.16,3.16,0,0,1,6,1.61c-.52,9.39-4.83,18.72-11.65,26a46.08,46.08,0,0,1-27.11,14,50.74,50.74,0,0,1-31.08-5.57,55.94,55.94,0,0,1-12.67-9.64c-3.46-3.47-6.37-6.84-9.06-9.84-5.36-6.14-9.79-9.82-13.53-10.66-3.76-1.15-10.44,0-18.09,2.56-7.8,2.36-17.68,6.05-28.93,4.42a27.81,27.81,0,0,1-15.08-7.46c-4-3.87-6.75-9.72-5.85-15.23a3.17,3.17,0,0,1,6-.82Z"/><path class="cls-5" d="M1868.08,2570.55c-30,37.07-72.87,61.5-117.65,68.91a3.12,3.12,0,0,1-1.43-6.05c41.84-13.07,77.46-41.61,98.79-77.2a12.46,12.46,0,1,1,21.37,12.8,12.24,12.24,0,0,1-1,1.39Z"/><path class="cls-5" d="M1472.42,2498.69c6.47-46.69,30.38-88.75,64.27-117.1a3.9,3.9,0,0,1,5.48,5.5c-27,32.44-40.53,74.06-38.75,113.29a15.6,15.6,0,1,1-31.17,1.42,15.77,15.77,0,0,1,.12-2.76Z"/><path class="cls-5" d="M1533.49,2597a286.13,286.13,0,0,0,25.63,18.07,316.81,316.81,0,0,0,27.76,15.57,239.41,239.41,0,0,0,29.48,12,158.15,158.15,0,0,0,31.14,6.42h.12a3.11,3.11,0,0,1-.17,6.2,166.15,166.15,0,0,1-33.61-2.06,253,253,0,0,1-32.74-8.14,330.79,330.79,0,0,1-31.47-12.17,306.43,306.43,0,0,1-30.46-15.58,12.46,12.46,0,1,1,12.68-21.45,10.67,10.67,0,0,1,1.41,1Z"/><path class="cls-10" d="M1616,2156q115.46-40.85,96.18,85.08"/><path class="cls-5" d="M1614.91,2153a108.56,108.56,0,0,1,42.68-17.13,70.3,70.3,0,0,1,25.22.33c8.7,1.85,17.8,6,24.67,12.78a52.13,52.13,0,0,1,8.73,11,63,63,0,0,1,5.32,12.25,80.26,80.26,0,0,1,3.38,24.46,114.74,114.74,0,0,1-9.71,44.74,3.21,3.21,0,0,1-6.13-.89v0c-1.79-14.78-2.61-29-5.09-42.1s-6.54-24.9-13.68-31.59c-3.45-3.53-7.94-5.85-13.23-7.64a69.42,69.42,0,0,0-18.07-2.72c-13.13-.58-27.24,1.24-42,2.37h-.06a3.2,3.2,0,0,1-2-5.86Z"/><path class="cls-5" d="M1564.8,2885.62c7.23-6.86,14.35-13,21.77-19.18s15-12,22.78-17.61a253.17,253.17,0,0,1,24.29-15.65c8.46-4.67,17.24-9,26.74-11.57a3.11,3.11,0,0,1,2.13,5.83l-.08,0c-8.15,3.76-15.61,9.07-22.73,14.73a237.49,237.49,0,0,0-20.31,18.46c-6.49,6.49-12.72,13.28-18.73,20.23s-12,14.14-17.27,21.2l-.05.06a12.46,12.46,0,1,1-19.91-15A12.65,12.65,0,0,1,1564.8,2885.62Z"/><g class="cls-8"><path class="cls-1" d="M1616.38,2347.9a26,26,0,0,0,4.47,7.43,9.59,9.59,0,0,0,7.74,3.26c4.74-.53,7.71-5.58,8.3-10.31,1-8.26-2.76-16.29-6.61-23.67-2.14-4.1-4.42-8.29-8-11.19s-8.88-4.21-12.91-2C1599.26,2317.14,1613.33,2341.11,1616.38,2347.9Z"/></g><g class="cls-8"><path class="cls-3" d="M1636.85,2490.73c3.63,1.24,7.24,2.79,10,5.41s4.63,6.5,4,10.27c-.87,5-5.62,8.28-10.14,10.58-13.24,6.73-27.92,10-42.42,13.21-4.7,1-9.5,2.09-14.3,1.64-22.26-2.11-12.48-30.42-.33-39.27C1597.26,2482.67,1622.07,2485.7,1636.85,2490.73Z"/></g><g class="cls-4"><path class="cls-5" d="M1556.85,2145.37c4.15-.29,8.55.46,11.76,3.1s4.82,7.45,2.92,11.15c-2.24,4.35-8,5.46-12.87,5s-9.81-2-14.57-.84c-2.83.67-6.16,2.15-8.32.21C1526.68,2155.84,1552.63,2145.66,1556.85,2145.37Z"/></g><g class="cls-4"><path class="cls-5" d="M1604.16,2175.74c3.77,8.83-12.82,18.9-17.76,8C1581.61,2173.12,1600.74,2167.72,1604.16,2175.74Z"/></g><g class="cls-4"><path class="cls-5" d="M1553.37,2178.43a9,9,0,0,1,5.43-1.28,5.51,5.51,0,0,1,2.59,1.08,4.28,4.28,0,0,1,1.57,2.28c.59,2.3-1,4.56-2.55,6.31C1555,2192.76,1545,2183.07,1553.37,2178.43Z"/></g><g class="cls-4"><path class="cls-9" d="M1731.64,2592.89c4.14-7.73,7.59-16.44,6.13-25.1-.46-2.78-1.61-5.69-4-7.13s-5.8-1-8.53.11a23.15,23.15,0,0,0-13.56,15.47c-1.83,7.18-2.47,24.68,2.76,30.56C1721.82,2615.14,1729.11,2598.42,1731.64,2592.89Z"/></g><g class="cls-4"><path class="cls-9" d="M1697.89,2632.22a21.73,21.73,0,0,1,4.41-5.93c1.9-1.59,4.57-2.49,6.9-1.65,2.88,1,4.32,4.37,4.42,7.44a14.17,14.17,0,0,1-4.76,10.93c-2.87,2.51-9.37,5.29-12.74,2C1692.54,2641.5,1695.94,2635.61,1697.89,2632.22Z"/></g><g class="cls-4"><path class="cls-9" d="M1676,2617.64a7.28,7.28,0,1,1,.88.84"/></g><g class="cls-4"><path class="cls-9" d="M1601.2,2435.31c11.76-.62,20.4-10.79,27.83-19.92s17-18.86,28.72-18c13.91,1,22.26,15.9,34.74,22.12a30.49,30.49,0,0,0,33.11-4.45c6.08-5.44,11-13.89,19.11-14.28,6.6-.32,12.1,5.14,15.19,11A39.83,39.83,0,0,1,1728,2470c-28.56,2.35-51-33.95-79.65-33.23C1633.3,2437.16,1614.81,2441.67,1601.2,2435.31Z"/></g><g class="cls-4"><path class="cls-5" d="M1549.89,2241.22a31,31,0,0,0-22.12-24c-10.19-2.68-21,.09-31.5-.44-5.69-.29-11.46-1.54-17-.31-8.37,1.83-14.82,9.27-17,17.56s-.62,17.22,2.71,25.11c10.14-10.94,24.71-18.22,39.33-21.18S1536.29,2235.08,1549.89,2241.22Z"/></g><path class="cls-6" d="M1956.41,1757.53s15.07,103.08,118.84,90.68c0,0,75.36,49.09,122.45,27,107.37,42,226.72-11.18,258.62-103.51,95.68-71.64-5.16-212.59-5.16-212.59,34-37.71-6.67-77.69-6.67-77.69,27.38-48.84-34.62-123.67-34.62-123.67,115-21.9,152.21-108.24,164.12-166.68,6.55-32,5.5-55.66,5.5-55.66-72.67,55.74-211.06,49.94-211.06,49.94-46.81-37.88-78.7,4.53-78.7,4.53s-146.53-20.82-133,104c0,0-37.57,42.46-17.48,92.91,13.65,34.26,53,92.08,56.7,154.56,0,0-13.38,58.49-100.22,25.75s-183.81-5-169.23,74C1890.28,1687.3,1908.64,1724.8,1956.41,1757.53Z"/><g class="cls-7"><path class="cls-1" d="M1931.22,1737c-3.57-17.67,1.65-36.64,18-57.44-14.58-79,82.39-106.73,169.23-74s100.23-25.75,100.23-25.75c-3.68-62.49-43.06-120.3-56.71-154.56-20.09-50.45,17.49-92.91,17.49-92.91-13.54-124.86,133-104,133-104s31.88-42.42,78.69-4.53c0,0,107.61,4.53,182.87-32.66,6.55-32,5.5-55.66,5.5-55.66-72.67,55.74-211.06,49.94-211.06,49.94-46.81-37.88-78.7,4.53-78.7,4.53s-146.53-20.82-133,104c0,0-37.57,42.46-17.48,92.91,13.65,34.26,53,92.08,56.7,154.56,0,0-13.38,58.49-100.22,25.75s-183.81-5-169.23,74C1897.63,1677.94,1903.45,1709.25,1931.22,1737Z"/></g><path class="cls-5" d="M2274.91,1905.26a227.74,227.74,0,0,1-77-13.37c-47,16.71-107.95-16.51-126.4-27.69-84.93,7.29-120.69-56.82-129.27-97.65-29.61-21.46-45.83-43.76-49.56-68-3.08-20.13,2.8-40.78,17.5-61.49-3.37-28.92,6.33-54.38,27.7-72.25,36.35-30.4,102-35.28,163.32-12.17,27.13,10.23,49.06,11.72,63.41,4.29a33.21,33.21,0,0,0,15.65-17.37c-3.22-41.63-23.39-81.5-39.66-113.67-6.38-12.62-11.89-23.52-15.78-33.28-19.08-47.89,5.32-88.85,15.89-103.38-2.52-35.34,6.77-63.46,27.63-83.64,35.5-34.34,93.6-33.55,115.22-31.9,7.24-7,20.47-16.85,38.78-19.11,17.37-2.14,34.64,3,51.51,15.4,24.48.3,136.18-.84,196.17-46.86a15.52,15.52,0,0,1,25,11.62c.08,1.93,6.33,185.51-159,232.79,16.77,25.75,40.63,72.1,26.7,111.2,14.32,18.59,27.28,50.38,7.56,80.94,36,55.61,74.58,160.79-.89,221.56-16.72,44.15-53,81.7-100.17,103.49A225.1,225.1,0,0,1,2274.91,1905.26Zm-77.21-45.56a15.37,15.37,0,0,1,5.66,1.07,196,196,0,0,0,152.84-4.26c41.13-19,72.27-51.75,85.44-89.87a15.45,15.45,0,0,1,5.37-7.36c82.33-61.65-7.57-189.85-8.49-191.13a15.55,15.55,0,0,1,1.11-19.42c23.1-25.63-3-53.21-6.08-56.28a15.62,15.62,0,0,1-2.61-18.61c18.12-32.31-17.71-87.6-33-106.18a15.54,15.54,0,0,1,9.06-25.15c68.28-13,115.4-51.45,140.05-114.3a254.41,254.41,0,0,0,15.52-63.78c-78.1,40.77-189.51,36.65-194.75,36.45a15.52,15.52,0,0,1-9.12-3.45c-11.33-9.17-22.18-13.25-32.23-12.08-14.61,1.67-24.27,13.86-24.37,14a15.75,15.75,0,0,1-14.51,5.93c-.63-.08-65.35-8.66-97.67,22.69-14.81,14.38-20.77,36-17.7,64.31a15.5,15.5,0,0,1-3.81,12c-1.22,1.42-30.88,36.21-14.69,76.88,3.38,8.47,8.6,18.8,14.65,30.75,17,33.59,40.25,79.57,43.13,128.64a15.37,15.37,0,0,1-.36,4.38c-.6,2.6-6.55,25.85-31.33,39.16-22.81,12.24-52.91,11.44-89.51-2.35-50.39-19-104.85-16.14-132.44,6.93-14.5,12.12-19.89,28.85-16,49.72a15.48,15.48,0,0,1-3.06,12.4c-12.35,15.73-17.36,29.83-15.32,43.09,2.53,16.51,16.59,33.64,41.78,50.9a15.47,15.47,0,0,1,6.58,10.52c1.39,9,16,87.84,101.65,77.56a15.59,15.59,0,0,1,10.32,2.4c19,12.32,75.28,41,107.38,26A15.48,15.48,0,0,1,2197.7,1859.7Z"/><path class="cls-5" d="M2211.46,1540.47a155.09,155.09,0,0,1-10.2,50.88,148.16,148.16,0,0,1-26.08,43,5.55,5.55,0,0,1-9.07-6.29l0-.06a132.18,132.18,0,0,0,14.86-42.36,129.29,129.29,0,0,0-.53-43.32,15.62,15.62,0,1,1,30.77-5.45,15.85,15.85,0,0,1,.24,3.2Z"/><path class="cls-5" d="M2413.73,1372.8c-5.46.89-9.89,1.28-14.75,1.7s-9.46.67-14.16.84c-9.39.37-18.73.38-28,.14s-18.55-.8-27.75-1.69-18.34-2-27.43-3.26a5.55,5.55,0,0,1,.53-11h.1c9-.39,17.91-.89,26.8-1.76s17.71-2,26.47-3.27,17.43-3,26-5c4.27-1,8.51-2,12.67-3.15s8.52-2.4,11.84-3.63a15.6,15.6,0,1,1,10.83,29.27,15.22,15.22,0,0,1-2.81.76Z"/><path class="cls-5" d="M2367.78,1554.92c-5,3.07-6.78,8.06-7.2,13a21,21,0,0,0,.57,7.14,71.1,71.1,0,0,0,2.29,7.9c1.89,5.62,4.29,11.93,5.75,19.7a45,45,0,0,1,.4,13,34.14,34.14,0,0,1-5,13.93,36.64,36.64,0,0,1-4.46,5.76,30.32,30.32,0,0,1-5.92,5,34.05,34.05,0,0,1-13.94,5.12,41.79,41.79,0,0,1-25.79-4.93,51.08,51.08,0,0,1-17.05-16.12,83.61,83.61,0,0,1-9.3-18.7,4.63,4.63,0,0,1,2.85-5.89,4.71,4.71,0,0,1,4.41.74c5.32,4.22,9.93,8.7,14.72,12.22s9.45,6.46,13.71,7.75a24.33,24.33,0,0,0,12.39.75,11.93,11.93,0,0,0,4.23-1.8,11.23,11.23,0,0,0,1.5-1.34,11.9,11.9,0,0,0,1.53-2c1.71-2.36,2.43-5.48,2.24-10.74s-1.44-11.49-2-18.69a56.77,56.77,0,0,1,0-11.52,31.59,31.59,0,0,1,3.58-12.1,27.84,27.84,0,0,1,8.16-9.4,21.81,21.81,0,0,1,5.63-2.76,16.71,16.71,0,0,1,6-.53,2.3,2.3,0,0,1,.95,4.24Z"/><path class="cls-5" d="M2073.54,1859.54a167.76,167.76,0,0,1-1.71-93.72,5.56,5.56,0,0,1,10.91,1.72v0a146.72,146.72,0,0,0,19.37,79.79,15.65,15.65,0,0,1-27,15.76,16.59,16.59,0,0,1-1.41-3.18Z"/><path class="cls-5" d="M2155.31,1724.11a14,14,0,0,1,8.84,2.06,25.29,25.29,0,0,1,6.09,5.54,90.25,90.25,0,0,1,7,11.22,67.06,67.06,0,0,0,12.47,15.52,61.94,61.94,0,0,0,15.77,10.62c5.46,2.43,11.25,3.71,15.71,3.18a15,15,0,0,0,5.92-1.94,21.67,21.67,0,0,0,5.62-5.13c3.77-4.59,6.72-11,10.24-18.37s7.88-15.52,15.32-21.88a32.84,32.84,0,0,1,12.49-6.63,21.53,21.53,0,0,1,13.84.59,2.27,2.27,0,0,1-.64,4.35l-.18,0c-7.12.72-12.35,5.35-15.85,10.75s-5.16,12-7.1,19.45-4.12,16.12-9.35,24.59a42.17,42.17,0,0,1-10.69,11.85,36.91,36.91,0,0,1-15.88,6.72c-11.25,1.8-21.49-.85-30.21-5.14a66.88,66.88,0,0,1-21.83-17.67,63.93,63.93,0,0,1-12.34-24.47c-1-4.14-1.47-7.59-2.4-10.49a16.87,16.87,0,0,0-1.35-3.58,4.86,4.86,0,0,0-2-2.28l-1.14-.69a4.44,4.44,0,0,1,1.66-8.19Z"/><g class="cls-4"><path class="cls-5" d="M2075.25,1848.21s75.36,49.09,122.45,27c107.37,42,226.72-11.18,258.62-103.51,95.68-71.64-5.16-212.59-5.16-212.59,34-37.71-6.67-77.69-6.67-77.69,27.38-48.84-34.62-123.67-34.62-123.67,115-21.9,152.21-108.24,164.12-166.68,0,0-95.38,127.22-260.89,125.93-20.11-.16-35.73,18.12-31.63,37.81,3.64,17.51,14,42.32,37.64,77.08,64.92,95.53,34.29,152.34,34.29,152.34s24.62,45.47-29.87,48.06c0,0-72,16.54-49.29,89.67,0,0-34.69,31.27-43,59.83s-55-21.93-55-21.93-72.21-24.86-94.44,24.26c0,0-52.58,19.84-125.37-26.6C1956.41,1757.53,1971.48,1860.61,2075.25,1848.21Z"/></g><g class="cls-4"><path class="cls-5" d="M2308.62,1510.66c-1.14,4-3.36,7.87-6.94,10s-8.65,2-11.47-1.07c-3.33-3.59-2.4-9.39-.29-13.8s5.22-8.54,5.78-13.4c.33-2.89.08-6.53,2.64-7.9C2309.1,1478.72,2309.78,1506.59,2308.62,1510.66Z"/></g><g class="cls-4"><path class="cls-5" d="M2002.29,1741.57c5.85,6.53,12.86,12.75,21.49,14.34,2.77.52,5.9.44,8.08-1.35s2.91-5.11,2.81-8a23.09,23.09,0,0,0-9.9-18c-6.11-4.18-22.34-10.76-29.66-7.86C1984.74,1724.73,1998,1737.3,2002.29,1741.57Z"/></g><g class="cls-4"><path class="cls-5" d="M2065.45,1721.49a21.13,21.13,0,0,1,4.07,6.17c.85,2.32.78,5.14-.81,7-2,2.35-5.59,2.57-8.5,1.62a14.17,14.17,0,0,1-8.64-8.22c-1.38-3.55-1.77-10.61,2.48-12.65C2058.57,1713.28,2062.94,1718.49,2065.45,1721.49Z"/></g><g class="cls-4"><path class="cls-5" d="M2272.46,1457.69a7.22,7.22,0,1,1-1.09.53"/></g><g class="cls-8"><path class="cls-1" d="M2173.93,1698.68c1.39,4.36,3.29,8.7,6.58,11.86s8.25,4.93,12.57,3.44c6.21-2.15,8.55-9.48,10.59-15.73a119,119,0,0,1,29.63-47.74c2.6-2.55,5.54-6.21,3.74-9.37-1.47-2.58-5.08-2.74-8-2.47-15,1.36-40.11,4.94-51.71,15.62C2166.69,1664,2170,1686.34,2173.93,1698.68Z"/></g><g class="cls-8"><path class="cls-1" d="M2230.43,1328.14a9.56,9.56,0,0,1-9-7.56c-3-14.66,3.24-31,14.3-41.61s26.05-16.22,41.35-18.75a9.62,9.62,0,0,1,10.77,6.87l.79,2.71a9.6,9.6,0,0,1-5.93,11.72c-9.9,3.53-20,7.88-27.79,14.32-7.43,6.14-13.17,15.05-14.43,24.4a9.41,9.41,0,0,1-9.92,7.91Z"/></g><g class="cls-8"><path class="cls-1" d="M2229.7,1378.19c17-6.56,1.8-32.93-13.62-29.48C2199.14,1352.49,2215,1383.87,2229.7,1378.19Z"/></g><path class="cls-6" d="M1564.85,2655c-64.36,17.09-78.43,96.77-8.12,166.47,21.78,21.6,50.2,36,80.85,37.17,43.56,1.7,62.73-23.81,69.4-63.27,7.48-44.31,25.64-86.35,55.9-119.56,37.78-41.46,87.27-73,144-98.32,54.53-5.49,95.77-32.11,130-69.84,8.93-9.84,21.25-16.33,34.51-17.08,37.56-2.12,61-25.27,73.23-65.21A76.65,76.65,0,0,1,2164,2393.6c42.75-42.7,58-88.31,42.86-137.16a75.92,75.92,0,0,1,4.16-55c17.51-36.71,13.66-69.43-12.75-97.91-6.25-6.73-10.29-15.1-13.32-23.77-5.95-17.09-19.34-28.81-29.67-35.7a61.66,61.66,0,0,1-20.54-22.22c-67-126.54-269.38-111.28-320.71-32.65-22.93,35.12-20.45,74.82-20.45,74.82-44.12,39.63-76.29,81-59.07,129.8,10.66,37.59,3.11,71.39-29.62,99.94-11.27,9.83-20.93,21.45-26.92,35.15-8.24,18.84-14.62,45.76-2.87,73.13,17.54,40.87-11.58,139.58-51.74,208.26A96.77,96.77,0,0,1,1564.85,2655Z"/><g class="cls-4"><path class="cls-5" d="M1637.58,2858.6c43.57,1.74,62.76-23.76,69.37-63.23,7.48-44.3,25.65-86.35,56-119.6,37.79-41.45,87.25-72.92,144-98.32,54.55-5.44,95.76-32.08,130-69.83,8.93-9.85,21.27-16.32,34.52-17,37.57-2.13,61.06-25.29,73.27-65.25a76.26,76.26,0,0,1,19.35-31.71c42.72-42.7,58-88.3,42.84-137.18a76.08,76.08,0,0,1,4.13-55c17.54-36.66,13.68-69.43-12.71-97.9-6.24-6.73-10.32-15.1-13.34-23.74-5.92-17.11-19.31-28.8-29.64-35.7a61.49,61.49,0,0,1-20.58-22.24c-46.27-87.41-157.11-107.19-238.16-85.18a160.7,160.7,0,0,1,40.28,37.32,61.23,61.23,0,0,0,23.91,18.47c11.37,5.12,26.48,14.44,35.23,30.3,4.4,8.06,9.75,15.65,17.06,21.29,30.74,23.67,40,55.33,28.77,94.44a76,76,0,0,0,5,54.92c23,45.66,15.5,93.18-19.61,142.34a77.51,77.51,0,0,0-13.82,34.51c-5.42,41.43-24.7,68.11-61.43,76.41-12.94,3-24,11.41-31.18,22.6-27.51,42.88-63.78,75.92-116.69,90.35-51.71,34.4-95.34,73.66-125.69,120.82-24.4,37.74-35.35,82.2-35.39,127.17,0,20.25-3.77,37.56-13.09,50.38C1632.43,2858.29,1635,2858.47,1637.58,2858.6Z"/></g><g class="cls-7"><path class="cls-1" d="M1605.18,2852.34a141.5,141.5,0,0,1-14.24-12.39c-70.3-69.74-56.25-149.41,8.09-166.48a96.79,96.79,0,0,0,58.48-44.67c40.19-68.73,69.3-167.42,51.78-208.28-11.76-27.38-5.39-54.31,2.83-73.12,6.05-13.7,15.65-25.33,27-35.19,32.75-28.52,40.28-62.32,29.64-99.91-17.21-48.75,14.92-90.15,59.06-129.83,0,0-2.51-39.7,20.46-74.8,36.33-55.71,148.54-79.63,234.7-43.81-87.61-60.33-227.43-38.14-268.92,25.34-22.9,35.1-20.45,74.79-20.45,74.79-44.14,39.68-76.27,81.08-59.07,129.83,10.64,37.6,3.11,71.39-29.64,99.92-11.23,9.85-20.89,21.48-26.88,35.19-8.28,18.81-14.65,45.74-2.89,73.11,17.52,40.87-11.6,139.56-51.72,208.28a96.93,96.93,0,0,1-58.49,44.68c-64.4,17.07-78.45,96.74-8.14,166.47A130.64,130.64,0,0,0,1605.18,2852.34Z"/></g><g class="cls-8"><path class="cls-1" d="M1850.32,2120.86c6.64,13,24.41,16,33.25,27.58,3.72,4.88,5.56,10.89,7.65,16.66s4.68,11.65,9.41,15.57,12.14,5.22,16.95,1.41c3.91-3.11,5.05-8.52,5.44-13.49a76.39,76.39,0,0,0-13.08-48.71c-8.56-12.48-23.93-26.53-39.5-29.07S1843.19,2106.94,1850.32,2120.86Z"/></g><path class="cls-5" d="M1641.42,2874.22q-2.25,0-4.44-.09c-33-1.28-65.38-16.07-91.19-41.65-41.19-40.84-59.21-89.87-48.2-131.14,8.14-30.48,31.2-52.85,63.28-61.36h0a81.52,81.52,0,0,0,49.06-37.51c40.53-69.3,64.78-161.91,50.88-194.3-11.17-26-10.16-55.58,2.92-85.48,6.4-14.63,16.81-28.3,30.93-40.62,26.53-23.14,34.48-49.71,25-83.56-19.94-57.34,17.21-103.49,58.32-141.32.4-14.52,3.64-46.79,23-76.47,28.57-43.76,97.42-70.91,171.33-67.51,79.74,3.65,143.93,40.61,176.1,101.39a46.46,46.46,0,0,0,15.42,16.56c12.23,8.15,28.35,22.32,35.74,43.51,2.85,8.2,6,14,10,18.32,30.37,32.75,35.69,72.57,15.38,115.16a60,60,0,0,0-3.34,43.7c16.67,53.74.95,105.13-46.72,152.74a61.68,61.68,0,0,0-15.48,25.3c-18.31,59.93-57.53,74.5-87.19,76.17-8.7.49-17.41,4.87-23.9,12-40.18,44.27-85.15,68.69-137.4,74.58-58.66,26.48-103.37,57.11-136.62,93.59-26.68,29.27-44.68,67.89-52.07,111.69C1711.75,2860.32,1673.44,2874.22,1641.42,2874.22ZM1568.83,2670c-21.32,5.66-36,19.64-41.24,39.36-8.1,30.38,6.87,68.17,40.07,101.08,20.27,20.09,45.32,31.69,70.53,32.67,31.45,1.28,47.31-13.83,53.48-50.34,8.39-49.68,29-93.75,59.74-127.43,36.6-40.17,85.38-73.54,149.13-102a15.31,15.31,0,0,1,4.78-1.27c46-4.64,84.13-25.24,120.07-64.83,12.1-13.33,28.13-21.2,45.14-22.15,29.62-1.67,48.45-18.91,59.25-54.25a92.68,92.68,0,0,1,23.22-38.19c39.42-39.36,52.18-79.12,39-121.56a91,91,0,0,1,5-66.28c15-31.43,11.78-57.06-10.11-80.67-6.91-7.44-12.34-17-16.6-29.23-4.55-13.06-15.36-22.37-23.63-27.89a77.5,77.5,0,0,1-25.64-27.86c-26.9-50.82-81.61-81.77-150.09-84.9-62.29-2.82-121.48,19.14-143.9,53.47-19.88,30.45-18,65-18,65.37a15.52,15.52,0,0,1-5.12,12.52c-51.08,45.87-67,78.64-54.8,113.07.11.31.21.62.3.94,13,45.7,1.4,84.68-34.36,115.87-10.64,9.28-18.34,19.26-22.9,29.67-6.66,15.23-12.55,38.13-2.83,60.78,20.5,47.76-10.65,150.49-52.6,222.23a112.91,112.91,0,0,1-67.91,51.85Z"/><path class="cls-5" d="M1807.68,2059.31c-.65,1.85-.07,6.24,1.58,9.65a19.17,19.17,0,0,0,2.81,4.49,9.49,9.49,0,0,0,3.81,2.84,44,44,0,0,0,14.65,3.8c5.61.64,11.73.7,18.28.89a113.92,113.92,0,0,1,20.48,2.08,58.07,58.07,0,0,1,43.75,41,3.12,3.12,0,0,1-5.85,2.08l0-.05a48,48,0,0,0-24.16-23.81c-10.32-4.74-21-4.26-33.27-2.5-12.07,1.54-26.15,4.55-42.25.22a36.53,36.53,0,0,1-12.7-6.25,45.41,45.41,0,0,1-9.39-9.91c-5-7.31-8.59-15.44-8.73-26.27l0-3.31a16,16,0,1,1,31.93-.43A16.65,16.65,0,0,1,1807.68,2059.31Z"/><path class="cls-5" d="M2213.69,2229.4a133.56,133.56,0,0,1,4.36,38.57,99.54,99.54,0,0,1-9.59,39.35A81.25,81.25,0,0,1,2181,2339c-11.71,7.93-26.27,12.78-41.17,12-14.83-1-26.75-6.5-37.29-10.38a97.26,97.26,0,0,0-15.2-4.75,130.46,130.46,0,0,0-16.27-1.89c-11.55-.89-24.94-.95-37.55-7.83a43,43,0,0,1-14.94-13.75,25.32,25.32,0,0,1-3.91-20,3.12,3.12,0,0,1,6.15.76v.15c0,10.2,8.82,17.77,18.27,21a35.72,35.72,0,0,0,7.15,1.76,67.15,67.15,0,0,0,7.87.5c5.41,0,11-.33,17-.71a99.23,99.23,0,0,1,38.19,3.83c11.81,3.37,22.25,6.79,31.21,6.5,17.66,0,35.14-13.81,43.17-30.76,8.36-17.6,9.22-39.39,5.66-60.77a12.44,12.44,0,0,1,24.26-5.33Z"/><path class="cls-5" d="M1837.38,2300.1a11.4,11.4,0,0,0,2,8.82,15.5,15.5,0,0,0,6.49,5.77c5.41,2.72,12.51,3.46,21.17,4.81a73.06,73.06,0,0,1,14.2,3.65,39.63,39.63,0,0,1,14.87,9.64,38.39,38.39,0,0,1,8.83,16,79.06,79.06,0,0,1,2.38,14.86c.62,9,.77,16.1,2.86,21.39a34,34,0,0,0,11.14,15.09c9.91,8.1,26.25,9.68,40.48,2.39l.1-.05a3.16,3.16,0,0,1,3.9,4.8c-5.92,7.31-14.87,12.36-24.66,14.28a46.16,46.16,0,0,1-30.2-4.48,50.93,50.93,0,0,1-22-22.7,56.13,56.13,0,0,1-4.63-15.23c-.78-4.84-1.17-9.28-1.59-13.28-.76-8.12-2.2-13.7-4.74-16.57-2.38-3.13-8.47-6.11-16.18-8.5-7.7-2.65-17.88-5.44-26-13.34a27.79,27.79,0,0,1-7.87-14.87c-.94-5.45.21-11.83,4.16-15.78a3.18,3.18,0,0,1,5.36,2.86Z"/><path class="cls-5" d="M1973.68,2572.24c-46,12.49-95.08,7.25-135.72-12.93a3.11,3.11,0,0,1,2.37-5.74c41.58,13.87,87.17,11.56,125.29-4.83a12.45,12.45,0,1,1,9.84,22.88,12.1,12.1,0,0,1-1.59.57Z"/><path class="cls-5" d="M1694.81,2282.51c32.56-34.08,76.56-54.21,120.63-57.38a3.9,3.9,0,0,1,1.23,7.67c-40.9,10.5-76.2,36.36-97.7,69.22a15.6,15.6,0,1,1-26.11-17.08,15.37,15.37,0,0,1,1.71-2.18Z"/><path class="cls-5" d="M1686.82,2398a284.66,284.66,0,0,0,10.22,29.64,315.8,315.8,0,0,0,13.4,28.87,239.73,239.73,0,0,0,16.91,27,157.33,157.33,0,0,0,21.5,23.42l.09.08a3.11,3.11,0,0,1-3.76,4.93,166.26,166.26,0,0,1-26.06-21.33,252.68,252.68,0,0,1-21.8-25.75,334,334,0,0,1-18.4-28.28,308.4,308.4,0,0,1-15.59-30.46,12.46,12.46,0,1,1,22.83-10,11.1,11.1,0,0,1,.58,1.61Z"/><path class="cls-10" d="M2011.71,2088.5q117.52,34.41,28.24,125.26"/><path class="cls-5" d="M2012.58,2085.52a108.52,108.52,0,0,1,44.63,11.06,70.16,70.16,0,0,1,20.26,15c6,6.59,10.93,15.28,12.54,24.8a51.74,51.74,0,0,1,.61,14.07,62.75,62.75,0,0,1-2.84,13.05,80.68,80.68,0,0,1-11.56,21.81,114.83,114.83,0,0,1-34,30.61,3.21,3.21,0,0,1-4.46-4.31l0-.05c7.19-13,14.83-25,20.5-37.12s9.26-24,7.38-33.62c-.73-4.89-3-9.39-6.26-13.94a69.67,69.67,0,0,0-13.06-12.78c-10.31-8.14-22.82-14.93-35.46-22.65l0,0a3.19,3.19,0,0,1,1.8-5.92Z"/><path class="cls-5" d="M1543.41,2650.37c9.86-1.33,19.24-2.15,28.87-2.81s19.16-1,28.78-1a251.33,251.33,0,0,1,28.85,1.53c9.59,1.15,19.22,2.8,28.45,6.25a3.11,3.11,0,0,1-1.68,6h-.08c-8.82-1.72-18-1.77-27.06-1.35a237.3,237.3,0,0,0-27.27,3.09c-9.06,1.46-18.08,3.33-27,5.45s-18,4.48-26.42,7.09l-.07,0a12.47,12.47,0,1,1-7.38-23.82A13.17,13.17,0,0,1,1543.41,2650.37Z"/><g class="cls-8"><path class="cls-1" d="M1899.78,2244.42a26,26,0,0,0-.72,8.64,9.59,9.59,0,0,0,4.37,7.18c4.15,2.33,9.52,0,12.76-3.51,5.68-6.09,7.29-14.83,8.48-23.07.67-4.58,1.27-9.31,0-13.77s-4.74-8.61-9.34-9.13C1903.89,2209.46,1901.28,2237.13,1899.78,2244.42Z"/></g><g class="cls-8"><path class="cls-1" d="M1832.83,2372.25c2.22,3.11,4.24,6.49,5,10.24s0,8-2.78,10.66c-3.63,3.54-9.41,3.43-14.42,2.65-14.67-2.28-28.49-8.22-42.13-14.1-4.43-1.91-8.93-3.86-12.56-7-16.82-14.73,7.67-32,22.7-32C1805.44,2342.54,1823.79,2359.51,1832.83,2372.25Z"/></g><g class="cls-4"><path class="cls-5" d="M1970,2045.33c3.53,2.19,6.66,5.38,7.72,9.4s-.45,8.86-4.15,10.75c-4.36,2.22-9.69-.25-13.36-3.48s-6.8-7.35-11.32-9.21c-2.69-1.1-6.26-1.85-6.88-4.69C1939.37,2036.17,1966.38,2043.11,1970,2045.33Z"/></g><g class="cls-4"><path class="cls-5" d="M1990.58,2097.64c-2.11,9.37-21.45,7.83-19.07-3.92C1973.82,2082.32,1992.49,2089.13,1990.58,2097.64Z"/></g><g class="cls-4"><path class="cls-5" d="M1947.81,2070.11a9,9,0,0,1,5.15,2.14,5.56,5.56,0,0,1,1.47,2.39,4.24,4.24,0,0,1-.07,2.77c-.86,2.21-3.43,3.14-5.75,3.62C1940.71,2082.66,1938.3,2069,1947.81,2070.11Z"/></g><g class="cls-4"><path class="cls-9" d="M1850,2510.55c7.89-3.85,15.77-8.9,19.66-16.77,1.25-2.53,2-5.56.9-8.15s-4.12-4.18-7-4.89a23.1,23.1,0,0,0-20,4.61c-5.69,4.75-16.44,18.57-15.64,26.4C1829,2522.85,1844.66,2513.55,1850,2510.55Z"/></g><g class="cls-4"><path class="cls-9" d="M1799.57,2522.71a21.25,21.25,0,0,1,7-2.23,7.25,7.25,0,0,1,6.56,2.69c1.73,2.53,1,6.08-.76,8.62a14.16,14.16,0,0,1-10.26,6.08c-3.8.36-10.69-1.19-11.5-5.83C1789.81,2527.1,1796,2524.31,1799.57,2522.71Z"/></g><g class="cls-4"><path class="cls-9" d="M1790.35,2498.08a7.27,7.27,0,1,1,.22,1.19"/></g><g class="cls-4"><path class="cls-5" d="M1836.34,2306.44c9.9,6.37,22.86,3.18,34.22.12s24.8-5.37,33.85,2.16c10.72,8.92,8.76,25.92,15.24,38.26a30.5,30.5,0,0,0,29.46,15.76c8.11-.85,17-4.85,23.85-.4,5.54,3.59,6.81,11.25,5.9,17.79a39.83,39.83,0,0,1-60,28.61c-24.54-14.79-21.51-57.37-45.16-73.54C1861.29,2326.72,1843.66,2319.56,1836.34,2306.44Z"/></g><g class="cls-4"><path class="cls-5" d="M1908.25,2119a31,31,0,0,0-3.92-32.37c-6.7-8.14-17.06-12.2-25.29-18.79-4.45-3.55-8.4-7.94-13.62-10.2-7.87-3.41-17.45-1.15-24.07,4.3s-10.58,13.59-12.49,21.95c14.62-2.95,30.69-.33,44.29,5.82S1900.81,2106.07,1908.25,2119Z"/></g><path class="cls-6" d="M2803.65,745.83s45.92,93.51-46.64,142c0,0-34.34,83.13-85.66,91.58-64.73,95.4-193.24,119.1-271.79,61-119.43-4.9-116.07-178.17-116.07-178.17-49.39-11.85-38.48-67.82-38.48-67.82-50.22-24.77-41.46-121.55-41.46-121.55-107.21,47-186.75-3.08-229.65-44.52-23.52-22.7-36-42.78-36-42.78,91.46,4.83,202.26-78.29,202.26-78.29,17.15-57.72,67.44-40.8,67.44-40.8s109-100.11,168.53,10.49c0,0,55,13.73,67,66.7,8.14,36,8.4,105.92,40.74,159.52,0,0,44.13,40.63,97.2-35.51S2729.76,559.61,2762.43,633C2818.42,650.5,2824.51,691.8,2803.65,745.83Z"/><g class="cls-7"><path class="cls-1" d="M2812.78,714.61c-7.06-16.59-22.1-29.27-47.34-37.17-32.67-73.35-128.33-41.35-181.39,34.79s-97.2,35.5-97.2,35.5c-32.34-53.6-32.6-123.55-40.74-159.52-12-53-67-66.69-67-66.69C2319.6,410.91,2210.59,511,2210.59,511s-50.3-16.92-67.44,40.81c0,0-86.15,64.63-169.25,76.58-23.52-22.7-36-42.78-36-42.78,91.46,4.83,202.26-78.29,202.26-78.29,17.15-57.72,67.44-40.8,67.44-40.8s109-100.11,168.53,10.49c0,0,55,13.73,67,66.7,8.14,36,8.4,105.92,40.74,159.52,0,0,44.13,40.63,97.2-35.51S2729.76,559.61,2762.43,633C2807.06,647,2820,676.05,2812.78,714.61Z"/></g><path class="cls-5" d="M2499.85,1087.35c-38.82,0-75.9-10.95-105.69-31.65-96.61-7.38-124.33-115.94-126.15-182.14-33.55-14-40.85-47.58-39.58-71-33.6-24.35-40.17-76.06-40.92-106.78a216,216,0,0,1-68.79,11.65c-121.64,0-193.17-112.19-194-113.59a15.53,15.53,0,0,1-.18-16.09,15.3,15.3,0,0,1,14.19-7.61c75.31,4,168.26-58.3,188.24-72.41,6.91-19.74,18.25-33.8,33.75-41.85,16.37-8.5,32.86-7.84,42.79-6.2,16.88-13.6,64.36-47.12,113-38.91,28.62,4.83,52.19,22.76,70.12,53.32,16.94,6,60.23,25.95,71.61,76.22,2.32,10.25,4,22.36,5.83,36.37,4.79,35.74,10.73,80,31.66,116.19a33.27,33.27,0,0,0,22.72,5.43c16-2,33.27-15.63,49.85-39.42,37.48-53.78,94.34-86.89,141.52-82.42,27.73,2.64,50.13,18.14,63.73,43.89,23.84,8.75,40.38,22.45,49.23,40.79,10.66,22.11,9.9,49.68-2.35,84.13,16,38.51,22.86,111.59-51.31,153.67-8.87,19.66-40.25,81.5-88.53,94.37-34.62,48.07-87.22,81.11-145.28,91A210.52,210.52,0,0,1,2499.85,1087.35ZM2203.55,657.4A15.53,15.53,0,0,1,2219,674.33c-2.13,24-.37,89.83,32.86,106.22a15.55,15.55,0,0,1,8.37,16.9c-.78,4.17-6.69,41.7,26.86,49.75a15.53,15.53,0,0,1,11.9,15.4c0,1.57-1.59,158.14,101.18,162.36a15.52,15.52,0,0,1,8.6,3c32.43,24,76.66,33.35,121.3,25.73,51.82-8.84,98.62-39.1,128.41-83a15.54,15.54,0,0,1,10.32-6.6c35.11-5.78,65.21-61.29,73.84-82.18a15.53,15.53,0,0,1,7.14-7.83c76.44-40.06,43.86-113.26,39.89-121.47a15.66,15.66,0,0,1-.52-12.39c11-28.5,12.9-50.57,5.64-65.62-5.83-12.08-17.94-20.87-37-26.85a15.53,15.53,0,0,1-9.54-8.49c-8.63-19.39-22.55-30.12-41.36-31.91-35.94-3.4-82.32,25.08-113.1,69.25-22.37,32.09-46.75,49.79-72.47,52.6-28,3-46-12.74-48-14.55a15.67,15.67,0,0,1-2.78-3.4c-25.39-42.09-32.25-93.17-37.25-130.48-1.78-13.27-3.32-24.74-5.33-33.64-9.67-42.69-53.81-54.58-55.68-55.07a15.66,15.66,0,0,1-9.85-7.69c-13.51-25.1-30.7-39.57-51.09-43-37.06-6.23-79.87,24.3-93.26,36.59a15.5,15.5,0,0,1-15.46,3.28s-14.88-4.58-27.87,2.31c-8.94,4.74-15.58,14.23-19.73,28.2a15.5,15.5,0,0,1-5.57,8c-4.21,3.16-93.87,69.7-181.4,80.21,33.28,38.93,113.69,109.48,229.26,58.74A15.5,15.5,0,0,1,2203.55,657.4Z"/><path class="cls-5" d="M2553.58,768.11a148,148,0,0,1-45.84-20.69,155,155,0,0,1-37.21-36.17l-.18-.25a15.63,15.63,0,1,1,25.13-18.59,16.61,16.61,0,0,1,1.66,2.83,129.07,129.07,0,0,0,24.08,36,131.85,131.85,0,0,0,36.23,26.51l.05,0a5.55,5.55,0,0,1-3.92,10.32Z"/><path class="cls-5" d="M2198.23,658.34c3.44-.87,7.84-2.33,11.82-3.71s8.16-3,12.23-4.57c8.14-3.24,16.21-6.81,24.22-10.62s15.91-7.89,23.68-12.28,15.46-9,23.08-13.72l.08-.05a5.55,5.55,0,0,1,6.69,8.79c-6.77,6.2-13.64,12.35-20.77,18.21s-14.45,11.55-21.93,17.1-15.23,10.74-23.18,15.75q-6,3.78-12.15,7.32c-4.24,2.4-8.11,4.59-13.12,7l-.19.09a15.61,15.61,0,0,1-13.29-28.25A16.79,16.79,0,0,1,2198.23,658.34Z"/><path class="cls-5" d="M2347.92,807.63a16.48,16.48,0,0,1,5.28-3,22.2,22.2,0,0,1,6.2-.92,28,28,0,0,1,12.06,3.14,31.46,31.46,0,0,1,9.79,7.95,56.62,56.62,0,0,1,6.51,9.49c3.58,6.28,6.1,12.17,8.9,16.57s5.18,6.61,7.92,7.59a12.33,12.33,0,0,0,2.38.74,10.78,10.78,0,0,0,2,.26,11.71,11.71,0,0,0,4.51-.9,24.58,24.58,0,0,0,9.79-7.63c2.78-3.48,5.09-8.6,6.92-14.16s3.22-11.92,5.22-18.4a4.62,4.62,0,0,1,5.78-3.07,4.7,4.7,0,0,1,3.11,3.21,82.92,82.92,0,0,1,2.92,20.68,51.25,51.25,0,0,1-4.93,22.93,42,42,0,0,1-18.47,18.67,34,34,0,0,1-14.39,3.66,30.26,30.26,0,0,1-7.72-.77,36.46,36.46,0,0,1-6.93-2.22,34.15,34.15,0,0,1-12-8.67,44.73,44.73,0,0,1-7.05-11c-3.2-7.22-4.79-13.79-6.4-19.49a72.84,72.84,0,0,0-2.6-7.81,20.68,20.68,0,0,0-3.57-6.21c-3.15-3.85-7.45-7-13.31-6.66h-.29a2.29,2.29,0,0,1-1.63-4Z"/><path class="cls-5" d="M2734.91,902.26a147.14,147.14,0,0,0-29.57-76.77l0,0a5.37,5.37,0,0,1,7.75-7.34,167.55,167.55,0,0,1,51.26,78.2l.09.31a15.11,15.11,0,1,1-28.88,8.89A16.15,16.15,0,0,1,2734.91,902.26Z"/><path class="cls-5" d="M2626.22,837.88a4.83,4.83,0,0,0-.32,3,16.56,16.56,0,0,0,.91,3.72c.87,2.91,2.41,6,4,10a63.82,63.82,0,0,1,3.68,27.16,66.91,66.91,0,0,1-8,26.93c-4.76,8.47-11.7,16.44-22,21.33a37,37,0,0,1-16.89,3.45,42.05,42.05,0,0,1-15.52-3.72c-9.11-4-15.87-10-21.63-15s-11-9.62-16.85-12c-6-2.48-12.88-3.33-19.16.1l-.16.09a2.27,2.27,0,0,1-3-3.23,21.51,21.51,0,0,1,11.08-8.31,32.84,32.84,0,0,1,14.05-1.61c9.73,1,18,5.37,25,9.37s13.13,7.7,18.84,9.35a21.67,21.67,0,0,0,7.53,1,14.89,14.89,0,0,0,6-1.75c4-2.08,8-6.41,11.15-11.5a62.2,62.2,0,0,0,7-17.69,67.49,67.49,0,0,0,1.5-19.85,89.11,89.11,0,0,1-.63-13.19,25.49,25.49,0,0,1,1.89-8,14,14,0,0,1,6.11-6.69,4.44,4.44,0,0,1,6,5.8Z"/><g class="cls-4"><path class="cls-5" d="M2757,887.85s-34.34,83.13-85.66,91.58c-64.73,95.4-193.24,119.1-271.79,61-119.43-4.9-116.07-178.17-116.07-178.17-49.39-11.85-38.48-67.82-38.48-67.82-50.22-24.77-41.46-121.55-41.46-121.55-107.21,47-186.75-3.08-229.65-44.52,0,0,150.64,50.9,286.36-43.85,16.49-11.52,39.71-5.29,47.48,13.26,6.91,16.49,12.4,42.83,12.6,84.86.54,115.49,58,145,58,145s5.43,51.42,51.82,22.71c0,0,68.69-27.08,91.39,46,0,0,46.3,6.14,69.35,25s32.91-49.2,32.91-49.2,45.46-61.36,91.59-33.45c0,0,54.57-13.4,88.29-92.89C2803.65,745.83,2849.57,839.34,2757,887.85Z"/></g><g class="cls-4"><path class="cls-5" d="M2373.56,741.66c3.2,2.65,7.23,4.59,11.37,4.31s8.25-3.27,8.85-7.38c.71-4.84-3.34-9.09-7.57-11.54s-9.14-4.09-12.35-7.78c-1.9-2.19-3.76-5.33-6.65-5C2355.08,715.6,2370.3,739,2373.56,741.66Z"/></g><g class="cls-4"><path class="cls-5" d="M2756.8,758.63c-1.13,8.71-3.39,17.8-9.6,24-2,2-4.62,3.7-7.43,3.45s-5.28-2.56-6.87-5a23.14,23.14,0,0,1-2.05-20.47c2.68-6.91,12.33-21.52,20-23.27C2761.73,734.82,2758,752.66,2756.8,758.63Z"/></g><g class="cls-4"><path class="cls-5" d="M2693.36,777.83a21.31,21.31,0,0,0,.14,7.39c.62,2.4,2.27,4.69,4.65,5.35,2.95.83,6.06-1,7.92-3.48a14.12,14.12,0,0,0,2.48-11.66c-.88-3.71-4.55-9.75-9.21-9C2694.39,767.17,2693.74,773.94,2693.36,777.83Z"/></g><g class="cls-4"><path class="cls-5" d="M2373.39,677.53a7.22,7.22,0,1,0,1.2-.18"/></g><g class="cls-8"><path class="cls-1" d="M2591,820.43c1.33,4.38,2.22,9,1.29,13.51s-4,8.73-8.41,9.94c-6.34,1.75-12.42-3-17.64-7a119,119,0,0,0-51.45-22.6c-3.58-.63-8.08-2-8.38-5.6-.25-3,2.63-5.13,5.22-6.59,13.12-7.36,35.87-18.63,51.48-16.39C2577.38,787.78,2587.28,808,2591,820.43Z"/></g><g class="cls-8"><path class="cls-1" d="M2334.71,546.94a9.55,9.55,0,0,0,3.11-11.3c-5.81-13.8-20.24-23.76-35.34-26.21s-30.66,1.37-44.7,7.95a9.62,9.62,0,0,0-5,11.75c.3.89.6,1.79.89,2.68a9.61,9.61,0,0,0,11.52,6.31c10.17-2.7,20.94-4.81,31-3.92,9.6.85,19.37,4.95,25.7,11.94a9.42,9.42,0,0,0,12.66.91Z"/></g><g class="cls-8"><path class="cls-1" d="M2363.64,587.79c-17.71,4.2-20.12-26.13-5.46-32C2374.29,549.31,2379,584.15,2363.64,587.79Z"/></g><path class="cls-11" d="M1321.36,2338.16l2.17,8.17A31.24,31.24,0,0,1,1321.36,2338.16Z"/><path class="cls-11" d="M2623.34,2170.76a31.54,31.54,0,0,1,0,8.46Z"/><path class="cls-11" d="M1263.07,2300.56l4.85,13.93A36.73,36.73,0,0,1,1263.07,2300.56Z"/><path class="cls-12" d="M2669.06,2134.34l-35.21,438.84-37.59,469c26.94,209.52-546.24,336.26-848.55,268.23a.18.18,0,0,0-.1,0c-94.88-21.34-163.07-61.9-177.61-125.09a101.57,101.57,0,0,1-2-10.89l-88.65-254-211.42-605.86c43,74.29,352,97,718.56,49.89,117.38-15.09,227.24-35.63,323.1-59.31,90.49-22.32,168.51-47.42,228.6-73.37C2613.27,2199.29,2660.45,2165.58,2669.06,2134.34Z"/><g class="cls-7"><path class="cls-1" d="M2133.1,3314.24c-257.44,37.53-532,5.74-563.1-129a101.57,101.57,0,0,1-2-10.89l-88.65-254-211.42-605.86c9.49,16.39,32,30.3,65.19,41.46l194.75,558.17,88.66,254a96.85,96.85,0,0,0,2,10.89C1647.59,3305.29,1890.69,3341.18,2133.1,3314.24Z"/></g><path class="cls-1" d="M2669.06,2134.34l-35.21,438.84C2368.38,2899.76,1989,3119.58,1570,3185.26a101.57,101.57,0,0,1-2-10.89l-88.65-254c439-53.59,831.48-308.33,1058.84-688.65C2613.27,2199.29,2660.45,2165.58,2669.06,2134.34Z"/><path class="cls-11" d="M2670.22,2119.63a36.8,36.8,0,0,1-1.16,14.71Z"/><path class="cls-5" d="M1937.07,3346.19c-70.79,0-136.19-6.26-192-18.7-116.73-26-183.74-77.54-194-149.08L1252.3,2322a54,54,0,0,1-6.33-19.26,17.24,17.24,0,0,1,33.38-7.88l4.54,13c34.59,52.62,298.93,91,700.39,39.36s647.48-155.59,667.66-215.26l1.09-13.72a17.24,17.24,0,0,1,16.78-15.86h.42a17.24,17.24,0,0,1,17.09,15,53.92,53.92,0,0,1-1.25,20.24l-72.47,904.12c8.21,71.79-43.58,138.59-149.93,193.29-90.64,46.62-215.81,82-352.43,99.54A1374.92,1374.92,0,0,1,1937.07,3346.19Zm-634-983.34,281.19,805.84a16.77,16.77,0,0,1,.82,3.48c16.24,126.17,274.78,160,521.77,128.26s488.56-129.91,472.34-256.07a17.86,17.86,0,0,1-.09-3.58L2647.28,2190q-50.46,41-163.3,81.43c-130.27,46.62-306.18,85.69-495.3,110s-369.19,31-507,18.86Q1362.41,2389.8,1303.06,2362.85Z"/><g class="cls-13"><path class="cls-1" d="M1624.18,2614.34,1735.34,3102l190.29-24.46-84.58-484.21a52.77,52.77,0,0,0-52.28-43.14l-114.32.89A51.93,51.93,0,0,0,1624.18,2614.34Z"/></g><g class="cls-4"><path class="cls-5" d="M2663.1,2208.36l-29.25,364.82-37.59,469c26.94,209.52-546.24,336.26-848.55,268.23a.18.18,0,0,0-.1,0c404.21-68.87,633.76-324.7,577.4-886.75-3.84-38.33,20.17-74.12,57.25-84.56,62.68-17.64,117.6-36.56,162.52-56C2602,2258.37,2643,2232.93,2663.1,2208.36Z"/></g><path class="cls-5" d="M1654.42,2514.07c-184.61,0-332.08-24.4-361.48-82.47-.13-.23-.25-.47-.37-.71a52.79,52.79,0,0,1-4.06-11.75,6.18,6.18,0,0,1-.12-.62c-.22-1.13-.41-2.22-.55-3.37a15.15,15.15,0,1,1,30.06-3.74c.07.54.17,1,.27,1.57a21.35,21.35,0,0,0,1.54,4.43c.07.13.14.25.2.38,5.58,11.21,37.62,48.8,215.56,61.89,128.92,9.5,294.65,2.54,466.68-19.58,361.94-46.53,601.74-138.19,643.62-200.81a15.15,15.15,0,0,1,25.18,16.84c-55.37,82.79-328.8,170.8-664.93,214C1887.05,2505.44,1764.17,2514.07,1654.42,2514.07Z"/><path class="cls-5" d="M1890.67,3234.73c-144,0-264.83-19.35-328.41-45.77a15.14,15.14,0,1,1,11.62-28c89,37,297,59.27,522.3,30.31,215.84-27.75,410.71-100.47,491.66-158a15.15,15.15,0,1,1,17.54,24.7c-81.42,57.83-274.29,133.61-505.33,163.31A1651.49,1651.49,0,0,1,1890.67,3234.73Z"/><path class="cls-6" d="M1669.25,1860.53c-30.44,24.26-81.38-18.38-53.94-67.34,0-32.82,27.29-31.14,27.29-31.14,14.67-40.39,62.28-21.16,62.28-21.16,71.67,16.7,56.87,107.23-6.31,108.18C1687.8,1849.23,1677.68,1853.81,1669.25,1860.53Z"/><g class="cls-4"><path class="cls-5" d="M1698.55,1849c-10.75.21-20.9,4.75-29.28,11.47-19.89,15.85-48.52,3.18-58.32-21.21,12.88,4.64,27.07,2.73,37-8.08,7.27-8,16.56-14.08,27.17-15.9,37.1-6.46,52.25-41.66,42.91-70.18C1774.39,1769.22,1757.57,1848.19,1698.55,1849Z"/></g><g class="cls-7"><path class="cls-1" d="M1742.43,1763.87a75.2,75.2,0,0,0-17.37-6.26s-47.61-19.24-62.25,21.15c0,0-27.32-1.66-27.32,31.16-11.81,21.1-9.09,41,.31,54.88-22.17-9-38.83-38.88-20.5-71.6,0-32.81,27.31-31.15,27.31-31.15,14.64-40.39,62.25-21.15,62.25-21.15C1722.33,1745,1734.65,1753.42,1742.43,1763.87Z"/></g><path class="cls-5" d="M1649.26,1883.13c-12.13,0-24.55-4.59-35.21-13.65-19.31-16.41-30.75-47.32-14.14-80.37,1-16.41,7.69-26.14,13.41-31.51a40.79,40.79,0,0,1,18.79-9.9,50.38,50.38,0,0,1,23.68-22c22.42-10,47.41-2,53.69.36,44.73,10.91,61.5,46.22,58.25,76.58-3.87,35.94-32.21,61.43-68.92,62-8.21.13-15.34,4.46-19.88,8.08h0A47.26,47.26,0,0,1,1649.26,1883.13Zm-7.61-105.58c.19,0-4.35,0-7.19,2.8-3,2.94-3.62,8.6-3.62,12.84a15.52,15.52,0,0,1-2,7.59c-11.36,20.26-4.25,36.93,5.3,45,6.39,5.43,16.88,9.37,25.41,2.57h0c11.93-9.5,25.33-14.63,38.76-14.84,24.1-.36,36.71-17.46,38.51-34.25,1.77-16.51-6.62-36.55-35.49-43.28a15.7,15.7,0,0,1-2.3-.72c-4.92-1.93-20.18-6-30.71-1.22-5.17,2.33-8.71,6.55-11.16,13.28A15.51,15.51,0,0,1,1641.65,1777.55Z"/><path class="cls-6" d="M2539.31,1922.88c-37.95-8.7-36.34-75.11,19.06-84.15,25.67-20.45,41.35,1.94,41.35,1.94,40.73-13.69,55.36,35.53,55.36,35.53,31.6,66.46-48.43,111.3-88.54,62.47C2559.7,1930.35,2549.81,1925.28,2539.31,1922.88Z"/><g class="cls-4"><path class="cls-5" d="M2566.55,1938.64c-6.86-8.28-16.74-13.39-27.21-15.76-24.8-5.68-32.72-36-19.75-58.83,4.39,13,14.73,22.87,29.34,23.88,10.77.71,21.34,4.17,29.37,11.33,28.18,25,65.14,14.92,81.63-10.16C2676.23,1948.22,2604,1984.27,2566.55,1938.64Z"/></g><g class="cls-7"><path class="cls-1" d="M2660.5,1919.89a75.42,75.42,0,0,0-5.92-17.49s-14.62-49.22-55.34-35.51c0,0-15.71-22.4-41.38-2-23.87,3.91-37.73,18.43-42.74,34.43-6.78-22.94,6.22-54.59,43.23-60.64,25.67-20.45,41.38,2,41.38,2,40.72-13.71,55.34,35.51,55.34,35.51C2662.75,1892.4,2663.83,1907.29,2660.5,1919.89Z"/></g><path class="cls-5" d="M2608.49,1975c-20.07,0-39.68-9.09-53.95-26.45-5.21-6.35-13-9.22-18.7-10.52h0c-23.52-5.39-38.76-26.58-37.93-52.74.8-25.32,17.85-53.52,54.05-61.13,13.44-9.47,25.25-10.25,33-9.15a40.89,40.89,0,0,1,19.45,8.54,50.42,50.42,0,0,1,32,4.79c21.8,11.32,31.08,35.86,33.17,42.22,19.33,41.79,2.17,76.9-23.6,93.27A69.72,69.72,0,0,1,2608.49,1975Zm-65.71-67.24c14.87,3.41,27.24,10.7,35.76,21.08,15.3,18.63,36.53,17.82,50.78,8.77,14-8.9,24.47-27.95,11.74-54.72a15.33,15.33,0,0,1-.86-2.25c-1.56-5-7.9-19.51-18.19-24.78-5-2.59-10.55-2.74-17.34-.45a15.51,15.51,0,0,1-17.66-5.8h0s-2.79-3.42-6.67-3.89c-4.2-.53-9,2.54-12.3,5.18a15.5,15.5,0,0,1-7.17,3.17c-22.93,3.75-31.53,19.69-31.92,32.21-.27,8.39,3.19,19,13.83,21.48Z"/><path class="cls-6" d="M1447.46,1910c-7.06-33.3,18.71-39.76,18.71-39.76,0-33.1,41.33-33.1,41.33,0,0,0,23.72,18.57,3.54,42.29C1518.37,1963.46,1454.79,1960.94,1447.46,1910Z"/><g class="cls-4"><path class="cls-5" d="M1511,1912.47c6.13,42.54-37.18,47.83-55.92,18.77,19.46,7.67,41.46-3.51,37-34.64,20.19-23.74-3.51-42.31-3.51-42.31a31.47,31.47,0,0,0-1.17-8.88c10.13.28,20.1,8.52,20.1,24.79C1507.52,1870.2,1531.22,1888.77,1511,1912.47Z"/></g><g class="cls-7"><path class="cls-1" d="M1467.15,1911c2.71,18.77,13,31,24.63,36.37-17.24,3.76-40.09-9.52-44.33-38.87-7.06-33.31,18.73-39.77,18.73-39.77,0-23.29,20.47-30.19,32.58-20.66-6.18,2.71-11.29,8.83-12.59,18.3a8.45,8.45,0,0,1-4.46,6.51C1474.75,1876.32,1461.91,1886.26,1467.15,1911Z"/></g><path class="cls-5" d="M1485.9,1961.59a47.21,47.21,0,0,1-29.74-11.13c-11-9-18.28-22.64-20.63-38.38-5.81-28.09,7.24-43.52,19.23-50.2,3.3-18.82,17.77-28.62,32.08-28.62,15,0,30.2,10.78,32.48,31.48,4.41,4.7,10.63,13.22,11.78,24.6.66,6.56-.24,16.19-7.52,26.69.76,11.32-1.5,21.33-6.63,29.2a35.8,35.8,0,0,1-25.28,16A39.79,39.79,0,0,1,1485.9,1961.59Zm.94-104.11c-3.95,0-8.56,3.33-8.56,12.72a12.12,12.12,0,0,1-9.17,11.75c-3.2.94-14,5.73-9.81,25.5a6.86,6.86,0,0,1,.14.79c1.84,12.71,7.6,19.81,12.11,23.52,5.08,4.18,11.31,6.22,16.66,5.45a11.6,11.6,0,0,0,8.46-5.22c2.65-4.06,3.47-10.2,2.38-17.78a12.12,12.12,0,0,1,2.76-9.57c3.87-4.54,5.57-8.71,5.2-12.73-.51-5.73-5.27-10.79-7.07-12.25a12.4,12.4,0,0,1-4.55-9.46C1495.39,1860.81,1490.78,1857.48,1486.84,1857.48Z"/><path class="cls-6" d="M1799.74,855.35c-5-33.67,21.12-38.54,21.12-38.54,2-33,43.29-30.5,41.26,2.54,0,0,22.53,20,.92,42.43C1867.23,913.11,1803.93,906.68,1799.74,855.35Z"/><g class="cls-4"><path class="cls-9" d="M1863,861.76c3.51,42.84-40,45.46-57,15.3,18.94,8.85,41.59-1,39-32.3,21.61-22.45-.9-42.44-.9-42.44a31.47,31.47,0,0,0-.63-8.94c10.1.9,19.55,9.74,18.55,26C1862.14,819.36,1884.65,839.35,1863,861.76Z"/></g><g class="cls-7"><path class="cls-1" d="M1819.34,857.55c1.54,18.9,11.11,31.71,22.34,37.82-17.43,2.69-39.42-12-41.85-41.53-5-33.67,21.14-38.54,21.14-38.54,1.43-23.24,22.28-28.88,33.79-18.62-6.34,2.32-11.82,8.12-13.7,17.5a8.48,8.48,0,0,1-4.85,6.22C1829.05,823.45,1815.62,832.59,1819.34,857.55Z"/></g><path class="cls-5" d="M1837.46,909.33c-11.21,0-22.54-4.65-31.52-13-10.39-9.68-16.86-23.72-18.24-39.57-4.07-28.42,9.92-43,22.3-48.94,2.59-10.59,8.83-18.88,17.81-23.35a31.54,31.54,0,0,1,31.38,1.94c9.09,6,14.42,16.13,15,28.22,4.11,5,9.8,13.86,10.25,25.31.26,6.58-1.24,16.14-9.14,26.16.06,11.35-2.81,21.21-8.41,28.74a35.82,35.82,0,0,1-26.22,14.37C1839.64,909.28,1838.55,909.33,1837.46,909.33Zm4.36-104a7.23,7.23,0,0,0-3.21.75c-3.3,1.65-5.31,5.7-5.66,11.43a12.13,12.13,0,0,1-9.88,11.16c-3.25.74-14.32,4.87-11.35,24.85,0,.27.07.53.09.8,1,12.8,6.36,20.24,10.64,24.22,4.81,4.48,10.85,6.9,16.3,6.46a11.59,11.59,0,0,0,8.76-4.69c2.89-3.89,4.08-10,3.46-17.6a12.11,12.11,0,0,1,3.35-9.38c4.13-4.3,6.09-8.35,6-12.39-.16-5.75-4.6-11.09-6.3-12.66a12.38,12.38,0,0,1-4-9.72c.35-5.72-1.15-10-4.22-12A7.18,7.18,0,0,0,1841.82,805.38Z"/><path class="cls-6" d="M2595.26,1544.94c-7.65-36,20.25-43,20.25-43,0-35.83,44.74-35.83,44.74,0,0,0,25.67,20.1,3.82,45.78C2672,1602.84,2603.19,1600.11,2595.26,1544.94Z"/><g class="cls-4"><path class="cls-5" d="M2664.07,1547.64c6.65,46.06-40.24,51.78-60.52,20.32,21.07,8.31,44.88-3.8,40-37.49,21.85-25.69-3.8-45.79-3.8-45.79a34.17,34.17,0,0,0-1.27-9.62c11,.31,21.76,9.22,21.76,26.83C2660.27,1501.89,2685.92,1522,2664.07,1547.64Z"/></g><g class="cls-7"><path class="cls-1" d="M2616.58,1546c2.92,20.31,14.11,33.51,26.65,39.37-18.66,4.06-43.39-10.32-48-42.08-7.64-36,20.28-43,20.28-43,0-25.22,22.15-32.69,35.26-22.38-6.69,2.94-12.22,9.56-13.63,19.82a9.17,9.17,0,0,1-4.82,7C2624.8,1508.52,2610.9,1519.28,2616.58,1546Z"/></g><path class="cls-5" d="M2636.94,1600.85a48.44,48.44,0,0,1-18-3.57c-19.43-7.78-33.09-26.47-36.61-50-6.29-30.41,7.83-47.11,20.81-54.34,3.57-20.38,19.23-31,34.72-31,16.26,0,32.7,11.68,35.16,34.07,4.77,5.1,11.51,14.32,12.75,26.64.72,7.09-.26,17.52-8.13,28.87,1.63,23.41-8.89,35.58-15.66,40.9A40.21,40.21,0,0,1,2636.94,1600.85Zm.94-112.72c-4.27,0-9.26,3.6-9.26,13.76a13.11,13.11,0,0,1-9.92,12.72c-3.46,1-15.16,6.21-10.62,27.61.06.28.11.56.15.85,2.07,14.4,9.73,25.57,20.47,29.87,6.38,2.55,12.93,2.11,17.09-1.15,4.93-3.88,6.81-11.78,5.31-22.26a13.08,13.08,0,0,1,3-10.36c4.18-4.92,6-9.42,5.63-13.78-.56-6.2-5.71-11.67-7.65-13.25a13.42,13.42,0,0,1-4.93-10.25c0-4.91-1.19-8.78-3.45-11.19A7.9,7.9,0,0,0,2637.88,1488.13Z"/><path class="cls-6" d="M2709.21,1658.08c-5.68,8.61-4.22,21.22,3.28,28.3,5.4,5.11,13,7.18,20.41,7.91,4.66.45,9.8.29,13.38-2.72,3-2.56,4.29-6.65,5-10.56,2.07-11,4.09-31.46-9.61-35.12C2732,1643.29,2714.55,1650,2709.21,1658.08Z"/><path class="cls-5" d="M2736.44,1704.49c-1.94,0-3.53-.16-4.51-.25-11.19-1.09-20-4.66-26.31-10.59-11-10.4-13.09-28.44-4.76-41.08,7.76-11.77,29.69-20,43.42-16.34,9.13,2.44,23.44,11.74,16.85,46.64-.89,4.73-2.73,11.57-8.41,16.35C2747.47,1703.64,2741,1704.49,2736.44,1704.49Zm.37-49.2c-6.17,0-16.59,4.25-19.25,8.29h0c-3,4.53-2.15,11.79,1.8,15.53,3,2.81,7.85,4.56,14.51,5.21,4.87.48,5.93-.38,6-.41s.9-.85,1.64-4.76c2.39-12.68,1.4-22.6-2.36-23.61A9,9,0,0,0,2736.81,1655.29Zm-27.6,2.79h0Z"/><path class="cls-10" d="M1533,850.15c-5.67,8.62-4.21,21.22,3.28,28.31,5.4,5.1,13,7.18,20.41,7.9,4.66.45,9.8.3,13.38-2.72,3.05-2.56,4.29-6.65,5-10.56,2.07-11,4.09-31.45-9.6-35.12C1555.8,835.36,1538.37,842.06,1533,850.15Z"/><path class="cls-5" d="M1560.27,896.56a43.6,43.6,0,0,1-4.52-.25c-11.18-1.09-20-4.65-26.31-10.58-11-10.4-13.09-28.45-4.76-41.08,7.77-11.78,29.7-20,43.43-16.35,9.12,2.44,23.43,11.75,16.84,46.64-.89,4.73-2.73,11.57-8.42,16.36C1571.29,895.72,1564.81,896.56,1560.27,896.56Zm.37-49.2c-6.18,0-16.6,4.26-19.26,8.3h0c-3,4.54-2.15,11.8,1.8,15.53,3,2.81,7.86,4.57,14.51,5.22,4.87.48,5.92-.38,6-.42s.91-.85,1.64-4.76c2.4-12.67,1.4-22.6-2.36-23.61A9.34,9.34,0,0,0,1560.64,847.36ZM1533,850.15h0Z"/><path class="cls-6" d="M1388.5,1722.7c-5.68,8.61-4.22,21.22,3.27,28.3,5.4,5.11,13,7.18,20.41,7.9,4.66.46,9.8.3,13.38-2.71,3-2.56,4.29-6.65,5-10.56,2.08-11,4.1-31.46-9.6-35.12C1411.26,1707.91,1393.83,1714.6,1388.5,1722.7Z"/><path class="cls-5" d="M1415.72,1769.11c-1.93,0-3.52-.16-4.51-.25-11.18-1.1-20-4.66-26.31-10.59-11-10.4-13.08-28.44-4.75-41.07h0c7.75-11.77,29.68-20,43.42-16.35,9.12,2.44,23.42,11.74,16.85,46.63-.89,4.73-2.74,11.58-8.42,16.36C1426.75,1768.26,1420.27,1769.11,1415.72,1769.11Zm.38-49.2c-6.18,0-16.59,4.25-19.25,8.29h0c-3,4.54-2.16,11.8,1.79,15.54,3,2.81,7.86,4.56,14.52,5.21,4.84.48,5.91-.38,6-.41s.91-.86,1.64-4.76c2.4-12.68,1.4-22.6-2.36-23.61A8.88,8.88,0,0,0,1416.1,1719.91Zm-27.6,2.79h0Z"/><g class="cls-4"><ellipse class="cls-5" cx="2038.52" cy="3596.03" rx="502.78" ry="83.3"/></g></svg>