<svg id="Layer_1" data-name="Layer 1" xmlns="http://www.w3.org/2000/svg" viewBox="0 0 171.79 205.74"><defs><style>.cls-1{fill:#990013;}.cls-1,.cls-10,.cls-11,.cls-12,.cls-2,.cls-3,.cls-4,.cls-5,.cls-6,.cls-7,.cls-8,.cls-9{fill-rule:evenodd;}.cls-2{fill:#f8dead;}.cls-3{fill:#ff4351;}.cls-4{fill:#cc4645;}.cls-5{fill:#d9ebc0;}.cls-6{fill:#d60024;}.cls-7{fill:#812d2f;}.cls-8{fill:#ecbec3;}.cls-9{fill:#fff;}.cls-10{fill:#f4c257;}.cls-11{fill:#fae9c9;}.cls-12{fill:#ba9545;}</style></defs><path class="cls-1" d="M302.17,268.13c3.92.57,5.5.41,5.28,1.95-5.78,40.45-5.22,38.79-6.8,38.57l-7.18-1c0,.25-1.66,11.71-1.66,11.41-3.15,11.29-20.11,9.37-20.11-3.09l1.67-11.22-42.74-6.23c-1.69,11.68-1.62,11.34-1.62,11.32,0,2.33-4.46,8.43-11.36,7.46-9.79-1.45-8.8-12.15-8.8-10.36,0-.15-.13.83,1.67-11.37-7.21-1-8.4-.81-8.18-2.38,5.78-40.44,5.22-38.79,6.8-38.56l4.28.62,5.08-34.91c-3,.48-4.64,1.2-4.89-.33-.22-.44,3.73-23.51,3.32-25.11A57.26,57.26,0,0,1,190.88,187c-16.16-3.35-18.85-12-7.56-24.82-.62-11.86,12.31-19.63,23.2-24.44,12.41-11,26.86-15.74,43.36-13.89,24.53-6.27,47.78-3.09,69.6,9.75,18.3,2.43,30.62,11.18,28.52,31,.27,17.78-14,27.91-30.71,34.24-6.6,40.17-2.93,37.77-10,34.38Z" transform="translate(-176.45 -120.74)"/><path class="cls-2" d="M295.47,261.85l3.85-26.48a147.49,147.49,0,0,0-73.83-10.75l-3.85,26.49,56.24,8.18a9.5,9.5,0,0,1,10.6,1.57Z" transform="translate(-176.45 -120.74)"/><path class="cls-3" d="M275.5,261.33c-59.89-8.75-56.57-7.75-56.33-9.41,4.42-30.92,3.91-29.24,5.13-29.49A148.26,148.26,0,0,1,301,233.61a1.1,1.1,0,0,1,.72,1.23l-4.14,28.49a1.18,1.18,0,0,1-1.33,1l-5.75-.81c2.3,4-2.52,2.53,9.36,4.28L305,232.18A152.21,152.21,0,0,0,220.88,220l-5.13,35.57L273.46,264A19.16,19.16,0,0,1,275.5,261.33Z" transform="translate(-176.45 -120.74)"/><path class="cls-3" d="M272.18,266.13,210,257.05l-5.14,35.29,95,13.83L305,270.89c-15.36-2.23-13.39-2.3-13.6-1.09-1.52,7.22-3.61,13-7.56,18.73a51.86,51.86,0,0,0,10.94-5.66,1.17,1.17,0,0,1,1.28,1.95,54.92,54.92,0,0,1-75.16-13.22,21.32,21.32,0,0,0-5.8,11.22,1.18,1.18,0,0,1-2.33-.42,23.62,23.62,0,0,1,17.73-18.83,1.11,1.11,0,0,1,1.38.85c.66,2.13-3.44.81-9.27,5.61a52.49,52.49,0,0,0,32.61,20.88,20.7,20.7,0,0,0,11.94-11.79C268.63,275.82,271.66,266.13,272.18,266.13Z" transform="translate(-176.45 -120.74)"/><path class="cls-4" d="M259.29,291.53A52.13,52.13,0,0,0,280,289.82c5-6.42,7.42-12.51,9.13-20.5a7.24,7.24,0,0,0-10.41-7.85C269.81,268.83,272.76,284,259.29,291.53Z" transform="translate(-176.45 -120.74)"/><path class="cls-5" d="M212.89,260.28,271,268.75a25.3,25.3,0,0,1,1.14-2.62L210,257.05l-5.14,35.29,3.33.47ZM291,271.65l13.64,2,.38-2.76-13.45-1.95A23,23,0,0,1,291,271.65Z" transform="translate(-176.45 -120.74)"/><path class="cls-6" d="M297.66,303.46c-116.86-13.9-122.6-15.47,2.19,2.71C306.18,262.84,306.92,263.68,297.66,303.46Z" transform="translate(-176.45 -120.74)"/><path class="cls-6" d="M220.88,271.6a21.42,21.42,0,0,0-5.8,11.22,27,27,0,0,1,3.33-4.75c-5.54-5.55,23.82,29.63,65.46,12.93A54.88,54.88,0,0,1,220.88,271.6Zm-3.76,5.19Z" transform="translate(-176.45 -120.74)"/><path class="cls-7" d="M276.79,264.66c.06,0,.22-.34.24-.38,2.07-3.25,3.71-3.69,1.66-2.81-8.81,7.3-6,22.58-19.4,30.06A52.13,52.13,0,0,0,280,289.82c.85-1.27,1.48-.81-2.61-.1-5.37,1.09-10.79,1.95-16.21,1.33C271.74,285.05,272.38,272.24,276.79,264.66Z" transform="translate(-176.45 -120.74)"/><path class="cls-8" d="M287.44,269.56c-4.11,19.71-12.26,20.8-6.85,19.45,4.61-6.14,6.89-12,8.51-19.69a7.22,7.22,0,0,0-9-8.37A7.17,7.17,0,0,1,287.44,269.56Z" transform="translate(-176.45 -120.74)"/><path class="cls-5" d="M230.48,263.57a17.83,17.83,0,0,0-17.73,18.83c1.78-9.9,8.16-13.46,7.51-13.46A23.47,23.47,0,0,1,230.48,263.57Z" transform="translate(-176.45 -120.74)"/><path class="cls-9" d="M224.07,251.49l3.61-24.64A147.77,147.77,0,0,1,299,237.27l.28-1.9a147.49,147.49,0,0,0-73.83-10.75l-3.85,26.49Z" transform="translate(-176.45 -120.74)"/><path class="cls-6" d="M303.84,233.18a152.52,152.52,0,0,0-83-12.41l.09-.81A152.21,152.21,0,0,1,305,232.18c-5.9,40.89-4.7,35.69-6.23,35.43Z" transform="translate(-176.45 -120.74)"/><path class="cls-5" d="M217.6,255.81l5.13-35.28c-.66.09-1.33.19-1.94.24l-5,34.76Z" transform="translate(-176.45 -120.74)"/><path class="cls-10" d="M216.89,218.06c32.51-6,63.42-1.19,92.84,13.5l3.57-24.35c-10.88-15.87-75-25.37-92.47-16.31C220.87,190.9,218.51,207.2,216.89,218.06Z" transform="translate(-176.45 -120.74)"/><path class="cls-10" d="M245.41,182.87a163.54,163.54,0,0,1,33,3.85c-1.76-3.76-1.57-6.52-.15-11.32,3.28-11.46,15.41-17.36,19.45-32.86,1.23-4.56-.19.33,1.23-4.42,1.29,9.51-3.75,18.45-9.5,25.68-7.8,9.94-10.94,10.89-9.51,23.2,7.5,1.65,18.25,4.82,24.67,8.42-.52-3.57,1.24-5.28,3.33-9.18,4.85-9.08,15.78-15,22-24.39.67-1,3.47-5.9,4-6.85-.55,2.84-.9,10-13.45,21.92-8.46,8-11.65,8.66-13.84,19.64a24,24,0,0,1,7.66,6.76c.76-5.91.79-6.12,1.57-6.38,15.74-5.88,30.34-15.51,29.8-32.38-.2-6.48,3.21-24.83-26.71-28.72-2,0-27.54-20.36-68.7-9.7-1.67.55-21.73-4.9-42.36,13.45-.68.69-23.72,8.89-22.25,22.92,0,1.32-8.67,8.93-6.56,15.13,2,5.78,12.38,6.86,12.79,7.27a54.49,54.49,0,0,0,24.91,7.61,7.41,7.41,0,0,1,3.42-5.14c-.9-4.47-1.66-5.65-7-7.79-7-2.86-18.26-5.43-21.3-13.41-1.34-6.49-.79-1.09,4.9,2.94,5.94,4.24,28.95,7,26.14,16.84,4.33-2.57,8.89-2.43,12.65-2.71a85.64,85.64,0,0,1,8.65-.48c-7-12.66-1.76-30.76-4.32-38.8-.81-2.47-1.86-3.57-3.38-5.57l2.24,1.1c5.65,4.14,5,17.26,4.89,23.49C243.27,176.93,245.83,182.88,245.41,182.87Z" transform="translate(-176.45 -120.74)"/><path class="cls-11" d="M224.92,189.38a21.5,21.5,0,0,0-4.09,1.52c-.44,3.56-4,27.19-3.94,27.16,32.51-6,63.42-1.19,92.84,13.5l.43-2.9c-28.33-13.41-57.86-19.12-89-13.36C225,189.24,224.92,189.36,224.92,189.38Z" transform="translate(-176.45 -120.74)"/><path class="cls-12" d="M305.69,226.62c1.48.66,3,1.33,4.47,2l3.14-21.45c-8.92-13-53.45-21.74-78.92-19.44-7.75.68-9.53,1.76-9.51,1.71,22.5-3.56,73.47,4.37,83.44,18.92C308.34,208.4,305.69,226.65,305.69,226.62Z" transform="translate(-176.45 -120.74)"/><path class="cls-12" d="M244.22,182.77c-7-12.66-1.76-30.76-4.32-38.8-.81-2.47-1.86-3.57-3.38-5.57l2.24,1.1c5.65,4.14,5,17.26,4.89,23.49-.24,8.75.34,12.08,1.76,19.88a163.54,163.54,0,0,1,33,3.85c-1.76-3.76-1.57-6.52-.15-11.32,3.28-11.46,15.41-17.36,19.45-32.86,1.23-4.56-.19.33,1.23-4.42,1.29,9.51-3.75,18.45-9.5,25.68-7.8,9.94-10.94,10.89-9.51,23.2,7.5,1.65,18.25,4.82,24.67,8.42-.52-3.57,1.24-5.28,3.33-9.18,4.85-9.08,15.78-15,22-24.39.67-1,3.47-5.9,4-6.85-.55,2.84-.9,10-13.45,21.92-8.46,8-11.65,8.66-13.84,19.64a24,24,0,0,1,7.66,6.76c.76-5.91.79-6.12,1.57-6.38,15.74-5.88,30.34-15.51,29.8-32.38,0-1.07,1.4-8.92-2.56-16-.48,4.5-.94,11-2.43,16.79-4.86,20.17-22.53,25.49-19.2,18.36,3.71-8,16.86-13.79,17.06-26.87.11-6.68-2.42-9.71-7.51-4.23-4.49,4.83-8.75,12.83-15.83,20.54-2.66,2.9-5.8,5.85-8,8.27s-3.42,4.24-5.94,4.66c-5.77,1.07-13.8-3.31-11.84-10.89,2.91-11.76,24.06-24.76,10.94-39.7-2.63-2.89-1.8-.69-6.75,9.22-5.53,10.92-10.28,14-13.84,17.36-8.61,7.9-6.09,12.12-10.22,15-3.14,2.17-12.89,3.25-17.35-4.19-5.35-9.32-1.71-17-2-23.77-.17-7.35-4.27-13-11.69-15.17-4.26-1.21-5.54.88-4.71,5.13.87,4.92,2.74,6,2.9,21.73.21,21-6.43,17-22.68,11.08-4.47-1.61-7.94-2.42-11-4.37-5.18-3.29-8.38-9.09-11.6-8.61-2.88.58-1.78,6.65-.48,9.37,5.14,10.91,25.28,13.59,23.78,17.36-.45,1.12-4.71,3.65-7.71,5.51a51.27,51.27,0,0,0,9.7,1.43,7.41,7.41,0,0,1,3.42-5.14c-.9-4.47-1.66-5.65-7-7.79-7-2.86-18.26-5.43-21.3-13.41-1.34-6.49-.79-1.09,4.9,2.94,5.94,4.24,28.95,7,26.14,16.84,4.33-2.57,8.89-2.43,12.65-2.71A80,80,0,0,1,244.22,182.77Z" transform="translate(-176.45 -120.74)"/><path class="cls-11" d="M193.45,151.29c4.59-4.23,15.65.29,19.87-3.23,11.51-10.23,19.35-22.69,46.78-13.79a3.27,3.27,0,0,0,1.33-.1c42.08-10.84,50.64,11.1,56.29,12.13,18.35,2,20.35-1.29,25.39,2.23-4.28-7.51-13-11.27-24.15-12.69-2,0-27.54-20.36-68.7-9.7-1.67.55-21.73-4.9-42.36,13.45-.68.69-23.72,8.89-22.25,22.92,0,1.32-8.67,8.93-6.56,15.13,2,5.78,12.38,6.86,12.79,7.27a55.36,55.36,0,0,0,15.21,6.18c1-.66,2-1.33,3-2-10.71-2-16.71-6.58-18.12-6.89-12.75-2.47-13.81-7.1-4.75-17.17,1.41-1.61.66-2.85.95-5C188.89,154.56,193.81,151.29,193.45,151.29Z" transform="translate(-176.45 -120.74)"/></svg>